<?xml version="1.0" encoding="utf-8"?>
<!-- Generator: Adobe Illustrator 16.0.0, SVG Export Plug-In . SVG Version: 6.00 Build 0)  -->
<!DOCTYPE svg PUBLIC "-//W3C//DTD SVG 1.1//EN" "http://www.w3.org/Graphics/SVG/1.1/DTD/svg11.dtd">
<svg version="1.1" id="Layer_1" xmlns="http://www.w3.org/2000/svg" xmlns:xlink="http://www.w3.org/1999/xlink" x="0px" y="0px"
	 width="297.64px" height="419.53px" viewBox="0 0 297.64 419.53" enable-background="new 0 0 297.64 419.53" xml:space="preserve">
<g>
	<g>
		<path fill="#FFFFFF" d="M234.767,270.388l-0.979,0.979l1.18-0.546L234.767,270.388z M234.767,270.388l-0.979,0.979l1.18-0.546
			L234.767,270.388z M234.767,270.388l-0.979,0.979l1.18-0.546L234.767,270.388z M234.767,270.388l-0.979,0.979l1.18-0.546
			L234.767,270.388z M234.767,270.388l-0.979,0.979l1.18-0.546L234.767,270.388z M234.767,270.388l-0.979,0.979l1.18-0.546
			L234.767,270.388z M234.767,270.388l-0.979,0.979l1.18-0.546L234.767,270.388z M234.767,270.388l-0.979,0.979l1.18-0.546
			L234.767,270.388z M234.767,270.388l-0.979,0.979l1.18-0.546L234.767,270.388z M234.767,270.388l-0.979,0.979l1.18-0.546
			L234.767,270.388z M234.767,270.388l-0.979,0.979l1.18-0.546L234.767,270.388z M234.767,270.388l-0.979,0.979l1.18-0.546
			L234.767,270.388z M234.767,270.388l-0.979,0.979l1.18-0.546L234.767,270.388z M234.767,270.388l-0.979,0.979l1.18-0.546
			L234.767,270.388z M234.767,270.388l-0.979,0.979l1.18-0.546L234.767,270.388z M234.767,270.388l-0.979,0.979l1.18-0.546
			L234.767,270.388z M234.767,270.388l-0.979,0.979l1.18-0.546L234.767,270.388z M234.767,270.388l-0.979,0.979l1.18-0.546
			L234.767,270.388z M234.767,270.388l-0.979,0.979l1.18-0.546L234.767,270.388z M234.767,270.388l-0.979,0.979l1.18-0.546
			L234.767,270.388z M234.767,270.388l-0.979,0.979l1.18-0.546L234.767,270.388z M234.767,270.388l-0.979,0.979l1.18-0.546
			L234.767,270.388z M234.767,270.388l-0.979,0.979l1.18-0.546L234.767,270.388z M234.767,270.388l-0.979,0.979l1.18-0.546
			L234.767,270.388z M234.767,270.388l-0.979,0.979l1.18-0.546L234.767,270.388z M234.767,270.388l-0.979,0.979l1.18-0.546
			L234.767,270.388z M234.767,270.388l-0.979,0.979l1.18-0.546L234.767,270.388z M234.767,270.388l-0.979,0.979l1.18-0.546
			L234.767,270.388z M264.377,254.716l-4.404-9.534l-26.186,26.186l1.18-0.546l26.902-12.436l0.549-0.253l2.198-2.198
			C264.639,255.54,264.563,255.118,264.377,254.716z M279.141,183.607c-12.548-12.548-31.224-15.23-46.393-8.05l4.565,9.88
			c0.538-0.256,1.081-0.496,1.636-0.721c1.787-0.724,3.653-1.275,5.554-1.644c1.883-0.363,3.813-0.549,5.736-0.549
			c1.922,0,3.854,0.183,5.736,0.549c1.899,0.369,3.769,0.92,5.554,1.644c3.712,1.509,7.048,3.724,9.913,6.589
			s5.083,6.201,6.589,9.913c0.724,1.788,1.278,3.654,1.645,5.554c0.365,1.883,0.549,3.814,0.549,5.736
			c0,1.923-0.187,3.854-0.549,5.736c-0.369,1.9-0.921,3.766-1.645,5.554c-1.506,3.712-3.724,7.048-6.589,9.913l-8.078,8.078
			l4.866,10.53l10.91-10.91C295.103,225.448,295.103,199.57,279.141,183.607z M228.782,177.71c-2.606,1.61-5.072,3.541-7.338,5.792
			c-0.036,0.034-0.07,0.068-0.106,0.104l-7.647,7.647l-6.117,6.116l-7.363,7.363l4.093,8.853l0.774,1.678l0.504-0.504l11.453-11.453
			l12.002-12.002c1.351-1.351,2.809-2.559,4.359-3.614L228.782,177.71z M236.853,274.911l-1.731,0.8
			c-0.811,0.374-1.675,0.565-2.572,0.565c-1.033,0-2.041-0.257-2.947-0.724l-8.523,8.523l-42.406-42.406l7.957-7.958l11.603-11.602
			l3.454-3.454l-2.818-6.094l-2.049-4.437l-3.155,3.155l-6.631,6.632l-6.201,6.2l-31.621,31.621l-7.698,7.698l-21.026,21.026
			c-3.181,3.178-5.725,6.752-7.639,10.563c-0.008,0.014-0.014,0.028-0.02,0.039c-0.042,0.085-0.082,0.166-0.124,0.248
			c-0.04,0.081-0.079,0.163-0.118,0.245c-3,6.2-4.343,13.004-4.022,19.742c0.459,9.804,4.433,19.475,11.923,26.965
			c15.962,15.962,41.844,15.962,57.806,0l0.605-0.605l60.735-60.735L236.853,274.911z M234.767,270.388l-0.979,0.979l1.18-0.546
			L234.767,270.388z M234.767,270.388l-0.979,0.979l1.18-0.546L234.767,270.388z M240.941,273.02l2.083,4.507l10.17-10.17
			L240.941,273.02z M234.767,270.388l-0.979,0.979l1.18-0.546L234.767,270.388z M234.767,270.388l-0.979,0.979l1.18-0.546
			L234.767,270.388z M234.767,270.388l-0.979,0.979l1.18-0.546L234.767,270.388z M234.767,270.388l-0.979,0.979l1.18-0.546
			L234.767,270.388z M234.767,270.388l-0.979,0.979l1.18-0.546L234.767,270.388z M234.767,270.388l-0.979,0.979l1.18-0.546
			L234.767,270.388z M234.767,270.388l-0.979,0.979l1.18-0.546L234.767,270.388z M234.767,270.388l-0.979,0.979l1.18-0.546
			L234.767,270.388z M234.767,270.388l-0.979,0.979l1.18-0.546L234.767,270.388z M234.767,270.388l-0.979,0.979l1.18-0.546
			L234.767,270.388z M234.767,270.388l-0.979,0.979l1.18-0.546L234.767,270.388z M234.767,270.388l-0.979,0.979l1.18-0.546
			L234.767,270.388z M234.767,270.388l-0.979,0.979l1.18-0.546L234.767,270.388z M234.767,270.388l-0.979,0.979l1.18-0.546
			L234.767,270.388z M234.767,270.388l-0.979,0.979l1.18-0.546L234.767,270.388z M234.767,270.388l-0.979,0.979l1.18-0.546
			L234.767,270.388z M234.767,270.388l-0.979,0.979l1.18-0.546L234.767,270.388z M234.767,270.388l-0.979,0.979l1.18-0.546
			L234.767,270.388z M234.767,270.388l-0.979,0.979l1.18-0.546L234.767,270.388z M234.767,270.388l-0.979,0.979l1.18-0.546
			L234.767,270.388z M234.767,270.388l-0.979,0.979l1.18-0.546L234.767,270.388z M234.767,270.388l-0.979,0.979l1.18-0.546
			L234.767,270.388z M234.767,270.388l-0.979,0.979l1.18-0.546L234.767,270.388z M234.767,270.388l-0.979,0.979l1.18-0.546
			L234.767,270.388z M234.767,270.388l-0.979,0.979l1.18-0.546L234.767,270.388z"/>
	</g>
	<g>
		<path fill="#FFFFFF" d="M178.123,284.647l-60.184-60.185l-16.205-16.207l-0.439,0.948l-5.334,11.538l-8.447,18.272l-15.36,33.228
			c-1.132,2.449-3.521,4.034-6.091,4.034c-0.897,0-1.765-0.191-2.575-0.565l-1.731-0.8l-2.837,6.139l61.4,61.4
			c15.962,15.962,41.841,15.962,57.803,0c0.262-0.262,0.521-0.526,0.774-0.794C194.08,325.641,193.823,300.348,178.123,284.647z
			 M178.658,319.285c-0.366,1.9-0.921,3.766-1.644,5.554c-1.507,3.712-3.725,7.048-6.59,9.913s-6.201,5.081-9.913,6.587
			c-1.785,0.726-3.653,1.277-5.554,1.646c-1.883,0.362-3.813,0.549-5.736,0.549c-1.922,0-3.854-0.187-5.736-0.549
			c-1.9-0.369-3.766-0.921-5.554-1.646c-3.712-1.503-7.048-3.722-9.913-6.587l-50.364-50.363l42.406-42.407l21.451,21.451
			l28.913,28.913c2.865,2.865,5.083,6.2,6.59,9.913c0.723,1.787,1.277,3.653,1.644,5.554c0.365,1.883,0.549,3.813,0.549,5.736
			C179.207,315.471,179.023,317.402,178.658,319.285z M45.063,267.193l10.462,10.462l2.142-4.636L45.063,267.193z M19.469,183.796
			c-15.962,15.962-15.962,41.841,0,57.803L30.32,252.45l35.471-76.738C50.633,168.571,31.997,171.268,19.469,183.796z
			 M77.274,183.796c-2.316-2.316-4.838-4.295-7.512-5.936l-35.527,76.856c-0.22,0.473-0.287,0.974-0.22,1.43l1.824,1.823
			l0.903,0.417l26.903,12.438l1.731,0.8c0.219,0.101,0.45,0.148,0.687,0.148c0.785,0,1.599-0.54,2.004-1.419l14.977-32.399
			l7.819-16.917l7.476-16.176L77.274,183.796z"/>
	</g>
</g>
<g>
	<g>
		<g>
			<g>
				<polygon fill="#FFFFFF" points="285.943,340.454 278.716,335.486 258.948,292.723 263.012,290.843 				"/>
			</g>
			<g>
				<path fill="#FFFFFF" d="M264.853,284.096l-4.087,1.889l-4.064,1.877l-4.087,1.892l0.357,0.771l12.239-5.657L264.853,284.096z"/>
			</g>
		</g>
		<g>
			<g>
				<path fill="#FFFFFF" d="M161.913,66.439c0.262,0.352,0.357,0.724,0.217,1.024l-0.248,0.535l-0.549,1.19l-1.866,4.039
					c-0.151,0.33-0.554,0.501-1.052,0.501c-0.36,0-0.774-0.09-1.183-0.278l-2.559-1.183l-0.794-0.366l-0.22-0.104l-1.672-0.771
					l-1.014-0.467l1.014-0.47l9.238-4.27C161.514,66.003,161.747,66.217,161.913,66.439z"/>
				<path fill="#FFFFFF" d="M166.679,66.718c0.006,0.076,0.011,0.152,0.017,0.228l-0.09-0.194L166.679,66.718z"/>
				<path fill="#FFFFFF" d="M173.682,82.058l-15.897,7.349l-5.998-12.976l0.202-0.442l3.355,1.551
					c0.982,0.453,2.046,0.692,3.071,0.692c2.282,0,4.252-1.194,5.14-3.116l2.665-5.762c0.352-0.766,0.51-1.587,0.476-2.409
					L173.682,82.058z"/>
			</g>
			<g>
				<path fill="#FFFFFF" d="M146.621,73.507l-1.46-0.673l0.515,1.112l0.589,1.272l0.357,0.771l0.203,0.442l0.315-0.681l0.763-1.649
					L146.621,73.507z M168.446,60.001l-4.087,1.889l-0.538,0.248c0.268,0.18,0.521,0.377,0.761,0.588l4.222-1.954L168.446,60.001z
					 M166.679,66.718l-0.073,0.034l0.09,0.194C166.689,66.87,166.685,66.793,166.679,66.718z M161.913,66.439
					c-0.166-0.222-0.399-0.436-0.687-0.619c-0.115-0.073-0.242-0.141-0.374-0.203l-1.265-0.583l-1.013-0.47l-9.269,4.284
					l-0.845,0.391l-0.168,0.079l1.013,0.467l1.668,0.774l1.014,0.467l1.672,0.771l0.341-0.158l7.881-3.642l0.248-0.535
					C162.271,67.163,162.175,66.791,161.913,66.439z M179.66,84.259l-24.074,11.126l0.357,0.771l4.087-1.889l15.897-7.349
					l4.087-1.892L179.66,84.259z"/>
			</g>
		</g>
		<g>
			<g>
				<g>
					<path fill="#FFFFFF" d="M266.385,284.323l-1.174,0.544l-12.239,5.657l-1.176,0.543c-0.307,0.141-0.631,0.208-0.951,0.208
						c-0.862,0-1.689-0.492-2.075-1.319l-5.745-12.43l-2.083-4.507l12.253-5.663l6.474-2.992l7.828,16.934
						C268.022,282.435,267.521,283.797,266.385,284.323z"/>
				</g>
				<g>
					<path fill="#FFFFFF" d="M261.512,257.614l-4.09,1.889l-18.726,8.658l-3.167,1.464l-0.921,0.425l0.158,0.338l0.2,0.434
						l26.902-12.436L261.512,257.614z"/>
				</g>
			</g>
		</g>
		<g>
			<g>
				<g>
					<path fill="#FFFFFF" d="M264.377,254.716l-4.404-9.534l-26.577-57.49l-4.613-9.981l-43.287-93.64
						c-0.405-0.875-1.216-1.416-2.004-1.416c-0.234,0-0.468,0.048-0.685,0.149l-3.146,1.456l-24.074,11.126l-3.147,1.455
						c-0.362,0.166-0.636,0.456-0.811,0.813c-0.27,0.56-0.292,1.286-0.005,1.967c0.014,0.028,0.025,0.06,0.039,0.087l35.119,75.972
						l13.429,29.053l4.093,8.853l0.774,1.678l1.593,3.445l7.667,16.584l16.208,35.06c0.404,0.879,1.216,1.419,2.004,1.419
						c0.233,0,0.467-0.048,0.684-0.148l0.555-0.257l1.18-0.546l26.902-12.436l0.549-0.253l1.183-0.546
						c0.616-0.285,0.979-0.927,1.016-1.652C264.639,255.54,264.563,255.118,264.377,254.716z M194.873,175.613
						c-0.627,0.29-1.246,0.304-1.373,0.034l-34.723-74.937c-0.126-0.273,0.284-0.732,0.915-1.024l20.071-9.277
						c0.628-0.29,1.247-0.307,1.374-0.034l34.723,74.936c0.127,0.273-0.287,0.732-0.915,1.024L194.873,175.613z"/>
				</g>
				<g>
					<path fill="#FFFFFF" d="M146.979,97.654c-0.09,0.647-0.087,1.309,0.008,1.962C147.274,98.938,147.251,98.211,146.979,97.654z"
						/>
				</g>
			</g>
		</g>
		<g>
			<g>
				<g>
					<path fill="#FFFFFF" d="M146.621,73.507l-0.946,0.439l-3.352,1.548c-0.689,0.321-1.424,0.49-2.128,0.49
						c-1.413-0.003-2.57-0.679-3.093-1.81l-2.666-5.765c-0.096-0.205-0.166-0.417-0.208-0.63l3.048,1.41l6.663,3.079l1.222,0.566
						L146.621,73.507z"/>
					<path fill="#FFFFFF" d="M161.913,66.439l-8.911,4.121h-0.003l-1.011,0.467l-1.014-0.467l-1.668-0.774l-1.013-0.467
						l-9.269-4.284l-2.654-1.228c0.144-0.084,0.293-0.163,0.445-0.233l0.538-0.248l9.271-4.287l2.683,1.241l9.269,4.284l1.013,0.47
						l1.265,0.583c0.132,0.062,0.259,0.129,0.374,0.203C161.514,66.003,161.747,66.217,161.913,66.439z"/>
					<path fill="#FFFFFF" d="M172.156,59.225l-3.353,1.548l-4.222,1.954c-0.24-0.211-0.493-0.408-0.761-0.588
						c-0.338-0.228-0.7-0.431-1.08-0.608l-8.07-3.729l13.865-6.409c0.405-0.188,0.819-0.279,1.183-0.279
						c0.498,0,0.897,0.172,1.053,0.501l2.662,5.765C173.698,57.947,173.121,58.777,172.156,59.225z"/>
				</g>
				<g>
					<path fill="#FFFFFF" d="M146.621,73.507l-1.46-0.673l-1.222-0.566l-2.559,1.183c-0.408,0.188-0.822,0.281-1.185,0.281
						c-0.498,0-0.898-0.174-1.05-0.504l-1.869-4.039l-3.048-1.41l-2.224-1.027l-0.07-0.034c-0.006,0.073-0.011,0.149-0.014,0.222
						c-0.037,0.825,0.118,1.649,0.473,2.415l2.663,5.765c0.89,1.919,2.86,3.116,5.14,3.116c1.027,0,2.088-0.242,3.074-0.695
						l3.352-1.551l0.518-0.239l0.763-1.649L146.621,73.507z M161.913,66.439c-0.166-0.222-0.399-0.436-0.687-0.619
						c-0.115-0.073-0.242-0.141-0.374-0.203l-1.265-0.583l-9.269,4.284l-1.013,0.467l1.668,0.774l1.014,0.467l1.672,0.771
						l0.22,0.104l0.794,0.366l6.659-3.079l0.549-1.19l0.248-0.535C162.271,67.163,162.175,66.791,161.913,66.439z M146.624,59.039
						l-2.685-1.238l-8.07,3.729c-0.383,0.177-0.743,0.38-1.081,0.608c-0.267,0.183-0.521,0.377-0.757,0.588l2.339,1.081l2.654,1.228
						l1.013-0.47l9.269-4.284L146.624,59.039z"/>
				</g>
			</g>
		</g>
	</g>
	<g>
		<g>
			<g>
				<polygon fill="#FFFFFF" points="39.662,292.723 19.894,335.486 12.666,340.454 35.597,290.843 				"/>
			</g>
			<g>
				<path fill="#FFFFFF" d="M41.911,287.861l-4.064-1.877l-4.087-1.892l-0.358,0.774l12.241,5.654l0.355-0.769L41.911,287.861z"/>
			</g>
		</g>
		<g>
			<g>
				<path fill="#FFFFFF" d="M140.98,94.44l-2.361,5.108l-2.043-0.943v-0.002l-15.897-7.347l-1.83-0.847
					c-0.073-0.034-0.146-0.065-0.22-0.09l2.367-5.12l2.043,0.946l15.897,7.349L140.98,94.44z"/>
				<path fill="#FFFFFF" d="M147.901,74.101l-0.763,1.649l-0.315,0.681l-5.995,12.976l-15.897-7.349l6.989-15.118
					c0.002-0.073,0.008-0.149,0.014-0.222l0.07,0.034l2.224,1.027l3.048,1.41l6.663,3.079l1.222,0.566l1.46,0.673L147.901,74.101z"
					/>
			</g>
			<g>
				<path fill="#FFFFFF" d="M153.002,70.56h-0.003l-1.011-0.47l-1.669-0.771l-0.169-0.079l-0.844-0.391l-9.269-4.284l-2.685-1.238
					l-2.564-1.188l-0.538-0.248l-4.087-1.889l-0.357,0.771l4.225,1.954l2.339,1.081l2.654,1.228l9.269,4.284l1.013,0.467
					l1.668,0.774l1.014,0.467l1.672,0.771l0.22,0.104l0.121-0.262l0.236-0.51L153.002,70.56z M131.934,66.718
					c-0.006,0.073-0.011,0.149-0.014,0.222l0.084-0.188L131.934,66.718z M140.98,94.44l-2.043-0.946l-2.361,5.109v0.002l2.043,0.943
					l0.298,0.138c0.63,0.29,1.044,0.751,0.917,1.024l-17.871,38.663l0.6,0.279l1.889-4.09l18.571-40.177L140.98,94.44z
					 M120.996,85.199l-2.043-0.943l-18.574,40.18l-1.889,4.087l1.114,0.515l17.871-38.663c0.112-0.242,0.605-0.259,1.154-0.056
					c0.073,0.025,0.146,0.056,0.22,0.09l1.83,0.847l2.361-5.111L120.996,85.199z"/>
			</g>
		</g>
		<g>
			<g>
				<g>
					<path fill="#FFFFFF" d="M57.667,273.02l-2.142,4.636l-5.686,12.298c-0.383,0.83-1.21,1.322-2.075,1.322
						c-0.318,0-0.642-0.067-0.949-0.211l-1.174-0.543l-12.241-5.654l-1.176-0.544c-1.137-0.526-1.638-1.889-1.112-3.025
						l7.828-16.934l6.122,2.829L57.667,273.02z"/>
				</g>
				<g>
					<path fill="#FFFFFF" d="M59.916,268.161l-18.729-8.658l-4.087-1.889l-0.357,0.771l26.903,12.438l0.358-0.774L59.916,268.161z"
						/>
				</g>
			</g>
		</g>
		<g>
			<g>
				<g>
					<path fill="#FFFFFF" d="M146.979,97.654c-0.169-0.357-0.445-0.647-0.805-0.813l-3.15-1.455l-2.043-0.946l-2.043-0.946
						l-15.897-7.349l-2.043-0.946l-2.043-0.943l-3.146-1.456c-0.22-0.098-0.451-0.146-0.687-0.146c-0.786,0-1.599,0.54-2.004,1.416
						l-43.352,93.79l-35.527,76.856c-0.22,0.473-0.287,0.974-0.22,1.43c0.09,0.636,0.439,1.185,0.997,1.441l0.828,0.382l0.903,0.417
						l26.903,12.438l1.731,0.8c0.219,0.101,0.45,0.148,0.687,0.148c0.785,0,1.599-0.54,2.004-1.419l14.977-32.399l7.819-16.917
						l7.476-16.176l2.956-6.39l13.209-28.581l32.442-70.182c0.014-0.031,0.028-0.062,0.04-0.093
						C147.274,98.938,147.251,98.211,146.979,97.654z M120.937,141.595c-0.127,0.273-0.746,0.256-1.376-0.034l-20.069-9.277
						c-0.63-0.293-1.042-0.751-0.915-1.024l1.027-2.221l17.871-38.663c0.112-0.242,0.605-0.259,1.154-0.056
						c0.073,0.025,0.146,0.056,0.22,0.09l1.83,0.847l15.897,7.347v0.002l2.043,0.943l0.298,0.138c0.63,0.29,1.044,0.751,0.917,1.024
						l-17.871,38.663L120.937,141.595z"/>
				</g>
				<g>
					<path fill="#FFFFFF" d="M151.628,97.654c-0.27,0.56-0.292,1.286-0.005,1.967C151.719,98.969,151.721,98.304,151.628,97.654z
						 M36.743,258.386l-0.903-0.417"/>
				</g>
			</g>
		</g>
		<g>
			<g>
				<g>
					<path fill="#FFFFFF" d="M162.13,67.463l-0.248,0.535l-0.549,1.19l-1.866,4.039c-0.151,0.33-0.554,0.501-1.052,0.501
						c-0.36,0-0.774-0.09-1.183-0.278l-2.559-1.183l-0.794-0.366l-0.22-0.104l-1.672-0.771l-1.014-0.467l-1.668-0.774l-1.013-0.467
						l-9.269-4.284l-2.654-1.228l-2.339-1.081l-4.225-1.954l-3.35-1.548c-0.968-0.448-1.542-1.278-1.28-1.847l2.666-5.765
						c0.152-0.329,0.554-0.501,1.049-0.501c0.363,0,0.777,0.09,1.185,0.279l13.863,6.409l2.685,1.238l2.683,1.241l9.269,4.284
						l1.013,0.47l1.265,0.583c0.132,0.062,0.259,0.129,0.374,0.203c0.287,0.183,0.521,0.397,0.687,0.619
						C162.175,66.791,162.271,67.163,162.13,67.463z"/>
				</g>
				<g>
					<path fill="#FFFFFF" d="M166.679,66.718l-0.073,0.034l0.09,0.194C166.689,66.87,166.685,66.793,166.679,66.718z"/>
				</g>
			</g>
		</g>
	</g>
</g>
</svg>
