<?xml version="1.0" encoding="utf-8"?>
<!-- Generator: Adobe Illustrator 23.0.2, SVG Export Plug-In . SVG Version: 6.00 Build 0)  -->
<svg version="1.1" xmlns="http://www.w3.org/2000/svg" xmlns:xlink="http://www.w3.org/1999/xlink" x="0px" y="0px"
	 viewBox="0 0 842 841.89" style="enable-background:new 0 0 842 841.89;" xml:space="preserve">
<style type="text/css">
	.st0{fill:#020000;}
	.st1{fill:#FFFFFF;}
</style>
<g id="Warstwa_2">
	<rect class="st0" width="842" height="842"/>
</g>
<g id="Layer_1">
	<g>
		<g>
			<path class="st1" d="M278.96,571.83c3.15-4.82,5.83-9.79,7.87-14.79c1.04-2.52,1.85-5,2.67-7.59c0.82-2.59,1.5-5.21,2.02-7.84
				c3.93-19.49,1.14-33.12-12.94-45.19c-9.23,4.82-17.35,9.77-25.85,14.21c-9.6,4.99-17.52,11.02-23.05,17.89
				c-2.8,3.44-5.09,7.12-6.86,11c-1.79,3.88-2.77,7.86-3.35,12.04c-2.23,16.56,5.55,35.42,23.49,49.62c0.64-2.52,1.27-5.01,1.9-7.47
				c0.69-2.46,1.43-4.89,2.16-7.26c1.46-4.74,2.95-9.28,4.48-13.66c1.66-4.45,3.36-8.74,5.08-12.91c0.88-2.05,1.75-4.1,2.62-6.15
				l2.88-6.09l1.96,0.44c-4.94,15.51-8.92,32.16-10.96,51.29C264.15,590.69,272.74,581.4,278.96,571.83z"/>
		</g>
		<g>
			<path class="st1" d="M244.42,497.23c2.19-1.86,4.24-3.76,6.13-5.7c1.93-1.95,3.79-3.94,5.47-5.95c1.68-2,3.21-4.03,4.6-6.04
				c0.69-1.01,1.34-2.02,1.96-3.03c0.66-1.01,1.29-2.03,1.88-3.05c9.12-16.27,10.4-31.79,0.81-45.24
				c-7.08,1.17-14.18,2.38-21.15,3.73c-6.93,1.35-13.83,2.85-20.66,4.63c-7.5,1.97-14.39,5.94-19.7,11.44
				c-5.24,5.48-9.48,12.53-11.5,20.18c-2.32,7.69-2.42,15.95-0.86,23.74c0.94,3.86,2.3,7.61,4.11,11.1c1.8,3.49,4.35,6.62,7.15,9.39
				c2.31-3.56,4.63-7.02,6.96-10.38c2.4-3.38,4.92-6.69,7.39-9.89c2.52-3.21,4.9-6.3,7.54-9.35c2.63-3.05,5.27-6.01,7.92-8.89
				l2.16,1.26c-8.84,12.09-16.41,25.18-23.69,40.03C224.55,511.32,235.65,504.63,244.42,497.23z"/>
		</g>
		<g>
			<path class="st1" d="M196.78,372.31c-1.2,1.47-2.22,3.04-3.22,4.65c-8.33,12.86-9.94,30.04-2.86,42.87
				c11.44-8.97,22.95-16.75,34.83-23.5l1.89,1.72c-2.46,1.97-4.94,4-7.43,6.09c-2.46,2.1-4.76,4.27-7.19,6.5
				c-2.4,2.24-4.82,4.54-7.27,6.93c-2.34,2.39-4.66,4.86-7.04,7.43c12.41,0.29,23.87-2.27,33.77-6.16
				c5.07-1.95,9.77-4.25,14.01-6.79c2.12-1.27,4.12-2.6,5.99-3.98c1.97-1.37,3.82-2.79,5.54-4.27c3.45-2.93,6.22-6.07,8.82-9.32
				c2.55-3.25,4.25-6.71,5.81-10.27c1.47-3.57,2.07-7.38,2.45-11.33c0.27-3.97-0.32-8.21-1.24-12.63
				c-14.58-1.94-29.2-3.95-43.67-4.27c-7.22-0.16-14.32,1.75-20.68,5.42c-3.08,1.85-5.99,4.13-8.68,6.75
				C199.29,369.45,198,370.85,196.78,372.31z"/>
		</g>
		<g>
			<path class="st1" d="M225.8,289.17c-3.18,2.01-5.83,4.61-8.4,7.46c-2.6,2.84-4.69,6.16-6.43,9.75c-0.88,1.79-1.67,3.64-2.37,5.56
				c-0.63,1.95-1.13,3.97-1.54,6.04c-0.76,4.15-1.36,8.4-1.04,12.91c6.48-2.48,13.16-4.52,19.43-6.42
				c6.26-1.94,12.62-3.43,18.83-4.68l0.98,2.14c-2.67,1.06-5.44,2.09-8.1,3.33c-2.67,1.28-5.36,2.57-8.06,3.87
				c-2.75,1.39-5.51,2.79-8.31,4.2c-2.7,1.5-5.45,3.06-8.26,4.7c11.78,3.58,23.18,4.44,33.53,3.67c5.25-0.36,10.24-1.15,14.85-2.28
				c2.3-0.57,4.52-1.24,6.63-1.99c2.12-0.73,4.22-1.38,6.16-2.19c3.9-1.59,7.27-3.51,10.46-5.58c1.55-1.05,2.97-2.19,4.26-3.42
				c1.31-1.22,2.62-2.44,3.72-3.8c4.34-5.49,7.21-12.01,7.94-20.61c-10.11-5.25-20.36-10.14-30.78-14.83
				c-3.81-1.71-7.66-2.99-11.5-3.79c-3.78-0.75-7.54-1.04-11.25-0.85c-3.69,0.2-7.43,0.81-10.87,1.98
				C232.24,285.52,228.93,287.14,225.8,289.17z"/>
		</g>
		<g>
			<path class="st1" d="M292.19,221c-3.55-0.44-7.11-0.38-10.66,0.19c-14.05,2.29-27.56,13.63-35.28,32.75
				c4.04-0.17,7.94-0.26,11.76-0.27c3.9,0.06,7.7,0.19,11.4,0.38c7.32,0.3,14.67,1.2,21.61,2.18l0.09,1.94
				c-3.16,0.03-6.38,0.1-9.66,0.22c-3.24,0.16-6.44,0.46-9.79,0.75c-6.74,0.55-13.37,1.67-20.55,2.94
				c9.35,7.13,19.51,11.64,29.13,14.35c2.41,0.68,4.76,1.22,7.13,1.69c2.38,0.49,4.72,0.87,7,1.14c4.59,0.57,8.8,0.59,13,0.46
				c4.17-0.15,7.85-0.9,11.51-1.77c3.58-0.95,6.75-2.42,9.78-4.14c1.49-0.89,2.84-1.96,4.16-3.1c1.36-1.09,2.62-2.33,3.76-3.73
				c2.24-2.88,4.42-5.94,6.05-9.92c-6.05-6.07-12.57-11.66-18.67-17.84c-3.43-3.47-6.9-6.51-10.43-9.07c-3.48-2.5-7-4.52-10.56-6.05
				C299.42,222.58,295.81,221.54,292.19,221z"/>
		</g>
		<g>
			<path class="st1" d="M365.06,182.41c-2.93-1.68-6.03-2.86-9.32-3.74c-3.28-0.87-6.72-1.4-10.12-1.33
				c-3.41,0.04-6.93,0.36-10.3,1.22c-3.35,0.9-6.65,2.18-9.79,3.8c-6.14,3.48-11.59,8.38-15.19,14.83c3.4,1.01,6.72,2.05,9.96,3.12
				c3.27,1.12,6.52,2.35,9.66,3.57c3.17,1.25,6.21,2.43,9.27,3.81c3.06,1.38,6.06,2.78,8.99,4.22l-0.41,2.31
				c-11.62-3.97-23.74-6.75-36.84-8.84c4.08,7.88,10.51,14.67,17.75,20.16c3.62,2.75,7.45,5.16,11.34,7.18
				c3.96,2.14,7.97,3.92,11.92,5.23c3.93,1.26,7.99,2.44,11.82,2.85c3.85,0.43,7.74,0.69,11.39,0.03
				c7.51-0.84,14.45-4.32,21.6-10.57c-5.57-11.74-11.08-22.95-17.34-33.52C375.85,190.64,370.93,185.82,365.06,182.41z"/>
		</g>
		<g>
			<path class="st1" d="M400.76,181.97c-2.71-1.73-5.46-3.26-8.31-4.9c-2.84-1.58-5.8-3.31-8.78-4.74
				c1.99,10.58,6.71,19.5,12.45,27.08c2.87,3.76,5.99,7.11,9.22,10.02c3.26,3.06,6.62,5.68,9.99,7.79
				c3.38,2.16,6.81,4.07,10.18,5.28c3.38,1.32,6.76,2.29,10.07,2.49c3.33,0.44,6.61,0.22,9.86-0.6c3.25-0.65,6.46-2.14,9.65-4.17
				c-1.43-10.9-3.15-21.55-5.3-32.32c-1.43-7.1-4.34-13.63-8.54-18.65c-4.19-5.12-9.65-9.2-15.89-11.5
				c-12.41-4.81-28.06-3.26-40.21,6.37c12.09,8.5,22.59,17.22,32.06,26.77l-1.02,1.73C411.28,188.76,406.19,185.52,400.76,181.97z"
				/>
		</g>
		<g>
			<path class="st1" d="M469.6,173.67c-2.52-3.04-5.2-5.79-8.01-8.79c-2.28,7.44-1.54,15.75,0.84,23.74
				c2.41,7.88,6.38,15.88,11.16,22.34c2.39,3.31,4.97,6.42,7.75,8.93c2.79,2.55,5.71,4.92,8.9,6.47c0.7,0.38,1.42,0.73,2.14,1.05
				c-3.56-0.05-7.05,0.57-10.17,1.56c-2.14,0.71-4.13,1.63-5.9,2.78c-1.78,1.26-3.36,2.71-4.67,4.32
				c-2.63,3.24-4.22,7.13-4.59,11.49c2.58-1.01,5.15-2.17,9.38-3.58c-3.31,3.2-5.18,5.39-7.12,7.52c2.25,0.88,4.35,1.36,6.3,2.01
				c1.95,0.6,3.78,0.97,5.54,1.13c3.5,0.36,6.73-0.39,9.82-1.68c6.16-2.58,12.11-8.97,19.37-19.33c-1.99-1.42-4.13-2.59-6.33-3.54
				c2.64,0.09,5.45-0.19,8.41-0.7c1.94-11.08,3.26-20.88,4.52-30.89c0.86-6.94,0.13-13.68-2.15-19.72
				c-1.15-2.95-2.68-5.76-4.55-8.37c-1.86-2.6-4.04-5.07-6.56-7.03c-9.91-8.39-24.8-11.42-38.78-6.51c1.32,2.01,2.63,4.01,3.93,5.99
				c1.23,2.04,2.44,4.07,3.66,6.09c2.36,4.04,4.57,7.97,6.65,11.98c-0.76,0.5-1.54,1.1-2.3,1.64
				C474.53,179.63,472.12,176.67,469.6,173.67z"/>
		</g>
		<g>
			<path class="st1" d="M538.93,189.06c-1.53-3.53-3.25-7.07-5.11-10.87c-3.49,9.61-4.86,18.92-4.76,27.32
				c0.09,4.17,0.41,8.24,1.01,12.02c0.59,3.82,1.58,7.16,2.69,10.5c2.31,6.52,5.66,11.88,10.11,16.17c1.11,1.08,2.31,2.07,3.61,2.96
				c1.28,0.93,2.59,1.85,4.05,2.63c2.96,1.49,6.06,3,9.8,4.01c4.38-7.78,8.09-15.51,12.16-23.16c1.81-3.38,3.23-6.75,4.26-10.1
				c1-3.31,1.58-6.57,1.76-9.79c0.18-3.21-0.04-6.4-0.68-9.45c-0.7-2.98-1.78-5.87-3.25-8.62c-5.88-10.87-18.56-18.83-34.65-19.42
				c1.24,4.29,2.35,8.51,3.23,12.77c0.9,4.23,1.71,8.32,2.36,12.43c-0.82,0.32-1.68,0.71-2.51,1.07
				C541.74,196.11,540.4,192.65,538.93,189.06z"/>
		</g>
		<g>
			<path class="st1" d="M604.07,209.92c-0.88,10.21-2.5,19.24-4.38,27.78c-0.59-0.05-1.2-0.08-1.81-0.1
				c-0.11-3.66-0.28-7.41-0.54-11.32c-0.33-3.84-0.8-7.78-1.36-12.03c-6.38,7.15-10.58,15.1-13.23,22.77
				c-1.3,3.82-2.23,7.61-2.89,11.34c-0.66,3.74-0.82,7.19-0.83,10.64c0.28,13.66,5.16,24.22,17.56,31.34
				c20.73-18.2,31.11-32.18,32.29-44.79C630.1,232.97,621.95,221.21,604.07,209.92z"/>
		</g>
		<g>
			<path class="st1" d="M194.94,638.07l0.19-2.48c7.75,0.86,15.38,1.58,24.92,1.89c-3.4-5.74-6.27-10.99-9.26-15.46
				c-3.05-4.43-5.74-8.41-8.65-11.68c-5.9-6.51-11.55-10.94-18.4-13.3c-13.39-4.88-30.11-2.31-53.28,4.13
				c5.78,25.35,20.92,45.05,43.84,52.22c3.73,1.18,7.31,2.02,10.89,2.34c3.61,0.31,7.1,0.18,10.49-0.43
				c6.78-1.23,13.14-4.42,19.22-9.93c-4.19-1.39-7.77-2.63-11.04-3.78C200.67,640.39,197.83,639.23,194.94,638.07z"/>
		</g>
		<g>
			<path class="st1" d="M149.6,580.8c8.02,0.87,15.97-1,23.3-5.69c-4.3-2.37-8.53-4.79-12.74-7.25c-4.11-2.51-8.11-5.11-12.17-7.78
				l0.98-2.15c5.02,2.25,10.02,4.38,14.97,6.39c5.01,1.99,10.13,3.8,15.13,5.53l3.69-4.1c-3.95-5.69-7.03-12.03-10.46-18.14
				c-1.78-3.04-3.28-6.16-5.08-9.12c-1.75-2.98-3.7-5.84-5.75-8.58c-7.67-10.65-17.18-13.36-27.1-14.13
				c-10.01-0.79-20.69,0.58-30.75-3c-0.31,5.86-0.13,11.71,0.84,17.29c1.02,5.56,2.57,10.91,4.55,15.91
				c4.3,9.89,10.2,18.36,17.44,24.32c3.57,3,7.26,5.46,11.18,7.21C141.57,579.26,145.59,580.37,149.6,580.8z"/>
		</g>
		<g>
			<path class="st1" d="M622.95,281.43c-2.33,2.95-4.28,6.12-6.02,9.43c-1.77,3.34-3.21,6.77-4.25,10.16
				c-1.16,3.44-1.97,6.86-2.3,10.16c-0.54,3.38-0.41,6.57-0.04,9.72c0.38,3.15,1.42,6.12,2.79,9.03c0.71,1.45,1.68,2.84,2.69,4.23
				c1,1.39,2.18,2.75,3.56,4.08c7.13-4,14.66-7.95,21.53-12.3c6.82-4.35,13.32-9.21,18.25-15.26c2.42-3,3.89-6.55,4.55-10.45
				c0.48-3.82,0.22-8-0.91-12.12c-1.24-4.08-2.97-8.26-5.63-11.93c-1.29-1.86-2.69-3.65-4.21-5.32c-1.6-1.63-3.29-3.15-5.05-4.53
				c-1.78,4.97-3.56,9.65-5.65,14.26c-2.05,4.58-4.06,8.91-6.42,13.21l-1.93-0.51c2.64-7.74,4.85-15.84,6.58-24.65
				C633.43,270.7,627.59,275.56,622.95,281.43z"/>
		</g>
		<g>
			<path class="st1" d="M114.9,494.46c3.41,2.62,7.05,4.67,10.82,6.05c7.49,2.8,15.7,2.91,23.65,0.17
				c-3.25-3.62-6.33-7.38-9.52-11.2l1.65-1.87c4.88,2.7,9.75,5.29,14.8,7.84c0.75-4.77,1.15-9.13,1.16-13.14
				c0.08-4.03-0.06-7.75-0.73-11.19c-1.41-6.86-3.94-12.71-8.67-17.9c-4.78-5.19-10.98-9.78-19.57-14.1
				c-4.27-2.16-9.07-4.25-14.42-6.31c-5.31-2.06-11.09-4.1-17.49-6.16c-7.04,20.64-2.32,43.64,8.97,58.29
				C108.22,488.65,111.5,491.83,114.9,494.46z"/>
		</g>
		<g>
			<path class="st1" d="M120.47,417.58c6.87,4.33,14.91,6.42,23.75,6.07c-6.02-7.97-11.14-15.93-16.31-24.24l1.91-1.5
				c3.3,3.87,6.61,7.64,10.06,11.44c1.73,1.87,3.48,3.77,5.29,5.72c1.89,1.89,3.82,3.83,5.82,5.84c0.82-1.88,1.5-3.71,2.05-5.5
				c0.63-1.79,1.13-3.54,1.53-5.27c0.77-3.45,1.09-6.8,1.06-10.11c0.17-6.6-1.01-13.07-2.51-19.77c-1.34-6.74-3.88-11.81-7.19-15.83
				c-3.28-4.01-7.18-6.95-11.53-9.46c-8.65-5.05-18.71-8.21-26.06-15.43c-11.24,20.04-11.28,42.92-3.92,59.06
				C108.24,406.74,113.49,413.27,120.47,417.58z"/>
		</g>
		<g>
			<path class="st1" d="M642.51,338.34c-3.12,2.29-5.9,4.79-8.3,7.37c-2.49,2.6-4.7,5.29-6.46,8c-7.23,10.93-9.34,21.87-3.42,31.85
				c12.11-0.76,22.46-2.6,30.84-5.55c4.14-1.47,7.81-3.21,10.99-5.22c3.21-2,5.92-4.25,7.98-6.73c8.65-9.87,8.48-23.67-1.19-37.05
				c-4.05,3.92-8.08,7.59-12.13,11.06l-1.56-1.17c1.84-3.87,3.91-7.91,5.69-12.44C656.12,330.03,648.81,333.77,642.51,338.34z"/>
		</g>
		<g>
			<path class="st1" d="M133.03,337.15c5.5,5.67,12.77,9.46,21.21,10.88c-1.86-4.4-3.47-8.69-5.11-13.02
				c-1.59-4.31-3.26-8.67-4.57-13l1.92-1.06c1.09,2.09,2.18,4.18,3.28,6.3c1.19,2.09,2.39,4.21,3.62,6.37
				c2.47,4.28,5.09,8.65,7.96,13.25c2.65-4.04,4.8-7.87,6.47-11.55c1.62-3.7,3.12-7.15,3.93-10.59c0.87-3.41,1.14-6.8,1.14-10.08
				c0-3.28-0.48-6.55-1.45-9.85c-0.97-3.3-2.43-6.62-4.36-10.02c-1.82-3.4-4.13-6.88-6.91-10.47c-5.53-7.16-13.12-14.82-22.34-23.03
				c-7.32,7.73-12.63,17.28-15.05,26.48c-2.77,9.26-2.81,18.94-1.1,27.49C123.44,323.84,127.54,331.5,133.03,337.15z"/>
		</g>
		<g>
			<path class="st1" d="M180.26,278.94c-0.69-6.75-1.3-13-1.44-19.18l2.17-0.26c1.15,3.06,2.33,6.08,3.54,9.06
				c1.24,2.99,2.59,5.98,3.91,8.91l4.91,0.39c0.89-3.11,2.16-6.09,3.39-9.11c1.27-3,2.45-6.08,3.79-9.06
				c2.72-5.92,5.04-12.03,6.93-18.12c0.87-2.99,1.31-5.77,1.4-8.38c0.1-2.61-0.05-4.97-0.54-7.27c-0.95-4.57-3.03-8.67-5.59-12.61
				c-5.09-7.91-12.25-15.1-15.23-24.66c-18.82,12.04-29.43,30.82-30.43,47.94c-0.35,8.7,1.23,16.83,5.29,24.09
				C166.34,267.91,172.38,274.08,180.26,278.94z"/>
		</g>
		<g>
			<path class="st1" d="M221.56,216.09c1.48-4.96,2.85-9.72,5.45-16.67c1.53,8.15,2.71,13.29,4.06,18.5l4.62,1.18
				c6.8-11.09,15.79-21.36,22.22-32.54c2.79-5.2,4.02-9.74,4.06-14.2c0.05-4.45-1.03-8.71-2.54-12.94
				c-3.03-8.48-7.84-16.62-8.02-26.15c-20.45,6.18-35.25,21.23-40.6,37.29c-2.62,8.15-3.12,16.38-1.3,24.15
				C211.38,202.56,215.45,209.79,221.56,216.09z"/>
		</g>
		<g>
			<path class="st1" d="M675.23,396.71c-2.96,1.71-5.88,3.32-8.8,4.86c-3.01,1.52-6,2.97-8.97,4.34l-0.94-1.56
				c4.72-3.66,9.02-7.63,14.02-12.33c-8.68-0.44-16.49,0.53-23.18,2.39c-3.36,0.93-6.39,2.11-9.21,3.47
				c-2.87,1.35-5.44,2.9-7.7,4.65c-9.19,7.01-13.87,16.56-14.78,30.4c22.72,5.25,40.64,3.96,51.48-3.1
				C678.11,422.93,681.56,410.29,675.23,396.71z"/>
		</g>
		<g>
			<path class="st1" d="M278.23,166.51c2.26-5.8,4.85-11.21,7.52-16.79l1.8,0.55c-1.22,7.17-2.36,14.03-3.08,21.49
				c4.35-1.62,8.42-2.9,11.89-4.5c3.48-1.61,6.63-3.11,9.37-4.86c2.74-1.72,5.03-3.76,7.07-5.88c2.03-2.14,3.72-4.56,5.1-7.34
				c2.73-5.64,4.41-12.34,5.24-21.16c0.42-4.38,0.63-9.3,0.75-14.69c0.12-5.36,0.11-11.28,0.04-17.81c-2.66,0.28-5.3,0.67-7.89,1.22
				c-2.55,0.62-5.06,1.36-7.49,2.21c-2.44,0.85-4.81,1.81-7.1,2.86c-2.27,1.1-4.43,2.36-6.52,3.66
				c-8.38,5.12-14.94,12.07-19.35,19.18c-4.27,7.39-6.43,14.93-5.97,22.18C270.07,154.11,272.95,160.82,278.23,166.51z"/>
		</g>
		<g>
			<path class="st1" d="M352.13,122.81l1.59,1.07c-2.16,5.29-4.22,10.44-6.12,15.92c8.64,0.12,15.68-0.92,21.73-2.93
				c5.98-2.21,10.93-5.5,15.06-10.5c4.11-5.1,7.52-11.39,10.34-19.77c2.81-8.38,5.12-18.37,7.08-30.35
				c-20.95-2.41-40.18,3.82-53.05,18.63c-5.37,6.38-8.79,12.78-10.04,19.57c-1.25,6.83-0.4,13.83,2.49,21.24
				C345.54,130.11,348.82,126.52,352.13,122.81z"/>
		</g>
		<g>
			<path class="st1" d="M420.77,111.29l1.5,1.81c-2.4,3.94-4.71,7.79-6.98,11.96c8.44,1.97,15.57,2.49,21.92,1.89
				c6.34-0.82,11.87-2.84,16.95-6.65c5.09-3.91,9.71-9.11,14.14-16.34c4.43-7.21,8.66-16.21,12.83-26.94
				c-5-1.86-10.08-2.74-15.06-3.4c-4.97-0.7-9.87-0.6-14.53-0.16c-2.34,0.22-4.61,0.55-6.82,0.97c-2.21,0.45-4.34,1.09-6.39,1.77
				c-4.1,1.39-7.87,3.08-11.19,5.17c-6.65,4.34-11.56,9.77-14.23,16.02c-2.68,6.32-3.13,13.29-1.26,20.55
				C414.73,115.5,417.72,113.4,420.77,111.29z"/>
		</g>
		<g>
			<path class="st1" d="M642.63,485.54c10.86-2.82,17.17-12.68,18.02-27.94c-6.07,1.17-11.75,2.1-17.61,2.65
				c1.63-2.46,3.63-3.17,5.48-4.18c2.05-1.12,4.02-2.48,6.49-4.18c-7.37-2.87-14.54-4.12-21.01-4.27c-3.24-0.08-6.29,0.15-9.15,0.62
				c-2.94,0.43-5.67,1.11-8.16,2.05c-5.04,1.84-9.3,4.55-12.78,8.23c-1.68,1.87-3.38,3.85-4.67,6.3c-1.5,2.27-2.57,5.04-3.74,7.93
				C616.14,484.42,631.66,488.34,642.63,485.54z"/>
		</g>
		<g>
			<path class="st1" d="M487.87,115.34c2.79-1.22,5.57-2.37,8.4-3.54l0.68,1.4c-4.86,4.2-9.53,8.29-14.44,13.19
				c16.18,6.8,27.36,8.77,38.28,4.24c10.94-4.68,21.43-15.74,35.38-34.53c-15.21-11.65-34.59-14.18-49.43-9.42
				c-7.5,2.54-13.88,6.53-18.59,12.21c-4.72,5.64-7.71,12.57-8.73,20.5C482.31,118,485.11,116.66,487.87,115.34z"/>
		</g>
		<g>
			<path class="st1" d="M545.69,135.28c5.11-0.75,9.96-1.65,18.38-2.5c-8.05,4.32-12.7,7.37-17.87,10.6
				c3.91,2.43,7.5,4.29,10.86,6.13c3.35,1.82,6.48,3.24,9.49,4.27c5.87,2.38,11.4,2.87,16.94,2.18
				c11.28-1.66,23.27-9.61,41.96-24.04c-3.69-3.75-7.58-7.13-11.61-9.99c-4.1-2.74-8.3-5.04-12.47-6.88
				c-4.25-1.68-8.47-2.91-12.56-3.68c-4.1-0.75-8.16-0.83-11.95-0.57c-7.65,0.43-14.13,3.32-19.44,7.43
				C552.14,122.4,548.16,128.15,545.69,135.28z"/>
		</g>
		<g>
			<path class="st1" d="M602.01,528.35c10.53,0.92,19.65-5.98,26.45-19.93c-6.54-0.8-12.51-1.79-18.38-3.09l0.24-1.34
				c4.74-0.59,9.77-1.16,15.43-2.41c-6-4.87-12.07-8.15-17.89-10.28c-5.92-2.22-11.32-3-16.53-2.98
				c-10.3,0.28-18.71,4.59-26.62,14.01c7.28,8.31,14.01,14.65,20.19,18.96C591.01,525.51,596.8,528.01,602.01,528.35z"/>
		</g>
		<g>
			<path class="st1" d="M607.14,167.18c2.97,0.08,5.86,0.16,8.71,0.24c2.86,0.15,5.65,0.4,8.51,0.64l0.3,1.89
				c-3.42,0.57-6.79,1.18-10.18,1.85c-3.4,0.69-6.9,1.55-10.43,2.44c1.46,1.65,2.89,3.17,4.26,4.61c1.33,1.5,2.63,2.89,3.91,4.17
				c2.58,2.55,5.07,4.67,7.45,6.55c2.41,1.84,4.87,3.24,7.4,4.29c2.47,1.12,5.06,1.85,7.84,2.2c5.62,0.66,11.76,0.07,19.35-1.87
				c3.79-0.96,7.94-2.26,12.47-3.81c4.5-1.52,9.42-3.33,14.85-5.38c-1-2.23-2.08-4.42-3.33-6.48c-1.27-2.03-2.63-3.99-4.07-5.85
				c-1.45-1.86-2.95-3.65-4.56-5.3c-1.64-1.62-3.34-3.14-5.08-4.55c-1.75-1.41-3.53-2.72-5.34-3.91c-1.85-1.14-3.75-2.15-5.64-3.06
				c-3.81-1.78-7.56-3.2-11.41-3.88c-7.61-1.48-14.77-0.97-20.88,1.72C615.2,156.35,610.36,160.9,607.14,167.18z"/>
		</g>
		<g>
			<path class="st1" d="M672.19,203.61c-6.05,0.94-11.74,3.91-16.79,8.66c3.66,1.61,6.82,3.34,13.34,6.75
				c-8.21-0.22-12.77-0.14-17.48-0.02c5.18,15.04,11.11,23.85,22.07,28.1c5.31,2.21,11.92,3.21,19.97,3.31
				c7.96,0.14,17.44-0.67,28.68-2.25c-6.05-20.53-18.31-35.23-30.97-41.33C684.64,203.74,678.17,202.71,672.19,203.61z"/>
		</g>
		<g>
			<path class="st1" d="M688.13,267.19c3.38,2.9,6.97,5.66,12.24,10.63c-7.35-2.23-11.96-3.22-16.62-4.32
				c1.37,15.43,4.96,25.14,13.87,31.85c4.46,3.34,10.31,5.88,17.54,7.95c7.25,2.06,16.27,3.56,26.77,4.84
				c3.26-16.94-3.28-33.9-14.2-43.81c-5.52-4.98-11.9-8.32-18.8-9.54C702.09,263.54,695.03,264.31,688.13,267.19z"/>
		</g>
		<g>
			<path class="st1" d="M575.58,538.51c3.38-0.51,5.38-0.81,8.4-1.26c-4.9-6.2-10.07-11.07-15.08-14.7
				c-2.49-1.78-5.01-3.35-7.47-4.61c-2.47-1.28-4.84-2.14-7.2-2.84c-9.46-2.61-17.89-0.73-26.77,6.36
				c4.05,8.01,7.18,17.21,12.24,24.38c2.54,3.57,5.61,6.61,9.59,8.41c1.99,0.9,4.24,1.6,6.74,1.84c2.49,0.21,5.26,0.08,8.33-0.46
				c6.83-1.49,13.13-5.54,20.07-9.53C580.94,543.21,578.57,541.17,575.58,538.51z"/>
		</g>
		<g>
			<path class="st1" d="M743.5,347.02c-5.23-10.7-13.77-17.5-24.53-19.58c-3.71-0.73-7.56,0.14-13.62,0.41
				c4.48,4.65,6.89,7.33,9.15,10.05l-1.16,1.72c-3.95-2.39-7.85-4.7-13.17-7.44c-0.49,19.54,2.05,31.73,9.89,40.41
				c3.77,4.3,8.84,7.65,15.06,10.22c6.21,2.56,13.48,4.32,21.89,5.36C750.29,372.22,748.77,357.66,743.5,347.02z"/>
		</g>
		<g>
			<path class="st1" d="M699,404.48c-0.55,3.52-1.11,6.65-1.24,9.54c-0.09,1.44-0.09,2.82-0.04,4.14c0.01,1.31,0.09,2.57,0.26,3.79
				c0.34,2.44,1.02,4.71,2.05,6.92c2.1,4.42,5.4,8.5,10.6,13.1c5.18,4.61,12.06,9.68,20.69,16.09c10.03-13.92,12.24-31.21,7.7-44.21
				c-2.24-6.53-6.12-12.04-11.02-15.93c-5-3.91-11.22-6.22-18.19-6.72c2.03,4.15,3.49,7.73,6.15,14.35
				c-6.23-5.72-10.04-9.04-14.78-12.83C700.38,397.08,699.5,400.95,699,404.48z"/>
		</g>
		<g>
			<path class="st1" d="M700.94,520.53c11.73-11.97,18.07-26.5,18.46-38.96c0.27-12.27-4.77-22.18-14.42-28.13
				c-2.24-1.39-6.09-1.71-9.76-1.28c-3.65,0.45-7.14,1.62-8.86,3.44c-5.49,6.03-7.72,14.72-7.98,23.47
				c-0.05,2.19,0.08,4.4,0.37,6.59c0.22,2.15,0.6,4.27,1.16,6.32c1.1,4.09,2.91,7.91,5.36,10.87
				C690.28,508.91,695.82,514.5,700.94,520.53z"/>
		</g>
		<g>
			<path class="st1" d="M669.15,502.9c-0.01,2.53-0.15,4.38-0.29,6.32c-0.2,1.87-0.33,3.8-1.29,9.76
				c-1.97-8.28-3.32-12.37-4.63-16.61c-11.82,10.76-18.24,18.13-19.46,27.96c-0.31,2.45-0.25,5.08,0.08,7.89
				c0.31,2.79,0.94,5.8,1.87,9.1c1.87,6.61,4.94,14.36,8.87,23.66c15.88-7,26.41-20.77,28.9-34.1c1.35-6.64,0.69-13.24-1.71-19.05
				C679.12,512.02,674.92,506.96,669.15,502.9z"/>
		</g>
		<g>
			<path class="st1" d="M634.48,579.83c2.76-5.66,3.68-11.43,2.84-16.67c-0.9-5.34-3.6-10.22-7.96-14.42
				c-1.19,2.11-2.45,4.05-4.6,7.35c-0.58-4.64-1.09-8-1.68-11.49c-13.92,5.95-22.17,11.8-26.03,21.38
				c-3.79,9.56-3.4,22.41,0.96,40.53C615.79,601.93,629.03,591.11,634.48,579.83z"/>
		</g>
		<g>
			<path class="st1" d="M574.25,611.47c4.28-4.61,7.15-9.91,8.3-15.77c1.15-5.89,0.65-12.15-1.48-18.61
				c-2.56,2.78-4.77,5.37-8.93,9.36c1.33-5.85,2.04-9.72,2.71-14.03c-14.64,2.92-23.34,5.69-29.04,13.21
				c-5.75,7.35-8.39,19.3-11.32,38.49C550.96,625.93,565.7,620.51,574.25,611.47z"/>
		</g>
		<g>
			<path class="st1" d="M547.05,583.02l-18.38-7.16c-39.4,7.5-81.13,2.31-117.67-15.03c-18.39-8.73-35.1-21.08-49.03-36
				c-13.94-14.93-25.06-32.48-32.66-51.47c-11.46-28.56-14.86-60.47-9.22-90.92c1.47-7.59,3.23-15.14,5.76-22.45
				c1.11-3.71,2.65-7.26,3.98-10.89l5.01-10.67c7.21-13.96,16.71-26.79,28.06-37.73l7.94-7.12c2.79-2.2,5.69-4.25,8.55-6.37
				c2.79-2.22,5.93-3.91,8.97-5.75c3.05-1.83,6.08-3.7,9.35-5.11c12.65-6.52,26.46-10.66,40.48-12.96l5.29-0.81
				c0.88-0.12,1.76-0.29,2.64-0.37l2.67-0.16l10.67-0.59c7.12,0.29,14.28,0.32,21.31,1.59c7.11,0.73,13.98,2.8,20.89,4.51
				c6.7,2.43,13.47,4.49,19.98,7.9c4.69,2.01,8.95,4.87,13.33,7.5l1.63,1l1.54,1.14l3.07,2.3c2.01,1.58,4.15,2.99,6.03,4.73
				c3.72,3.5,7.68,6.77,10.93,10.73c1.68,1.92,3.44,3.78,5.03,5.78l4.52,6.18c0.73,1.04,1.53,2.04,2.21,3.12l1.96,3.29
				c1.29,2.2,2.62,4.38,3.85,6.61l3.26,6.93l1.6,3.48l1.3,3.6l2.56,7.21l1.89,7.42l0.92,3.71c0.24,1.25,0.41,2.52,0.61,3.78
				l1.13,7.58l2.79-0.09l-0.8-5.38c-1.34-10.74-4.54-21.16-8.65-31.15l-3.4-7.37c-1.12-2.46-2.64-4.72-3.95-7.09
				c-2.56-4.79-5.92-9.06-9.07-13.48c-6.85-8.36-14.37-16.35-23.22-22.69c-4.21-3.48-8.98-6.1-13.59-8.99
				c-2.31-1.43-4.83-2.46-7.25-3.69l-3.66-1.77l-1.84-0.87l-1.86-0.69c-19.63-8.01-41.14-11.68-62.42-10.59
				c-21.26,1.09-42.35,6.71-61.2,16.76c-18.76,10.01-35.38,24.14-48.25,41.19c-1.57,2.16-3.36,4.17-4.73,6.47l-4.22,6.81
				c-2.98,4.46-5.07,9.38-7.44,14.16c-4.53,9.59-7.83,19.43-10.44,29.61c-5.11,20.32-6.33,41.64-3.76,62.46
				c2.57,20.83,8.97,41.19,18.79,59.78c9.82,18.68,23.17,35.54,39.15,49.46c7.98,6.96,16.61,13.19,25.73,18.58
				c9.07,5.37,18.84,10,28.48,13.57c9.74,3.59,19.71,6.65,29.91,8.75c10.2,2.09,20.55,3.5,30.97,4.08
				c10.41,0.49,20.86,0.24,31.25-0.77C526.66,587.54,536.94,585.6,547.05,583.02z"/>
		</g>
		<g>
			<path class="st1" d="M542.26,561.1c-5.23-15.63-13.75-25.95-25.14-32.36c-10.56-5.94-19.27-7.02-29.37-1.79
				c0.89,6.09,2.08,11.47,2.88,17.03c0.89,6.25,2.74,11.78,5.56,16.25c2.81,4.35,6.62,8.02,11.21,10.14
				c9.13,4.52,21.65,3.93,33.7-3.3c-10.67-6.84-19.18-13.52-26.86-20.94l0.68-1C522.92,550.99,531.68,556.23,542.26,561.1z"/>
		</g>
		<g>
			<path class="st1" d="M470.2,552.12c1.42,1.78,2.9,3.48,4.43,5.25c3.05,3.59,6.34,6.94,9.9,10.42c0.58-8.24-0.98-15.65-3.49-21.94
				c-1.26-3.09-2.75-6.12-4.41-8.74c-1.65-2.64-3.47-4.95-5.37-7.12c-7.69-8.34-16.72-12.35-26.62-9.97
				c-1.43,8.34-2.75,16.48-3.4,24.73c-0.79,9.14,4.02,18.19,12.11,23.72c4,2.85,8.76,4.62,13.6,5.35c4.88,0.53,9.83,0.11,14.23-2.03
				c-6.35-7.84-11.72-15.98-16.27-24.18c0.4-0.31,0.79-0.61,1.19-0.92C467.43,548.5,468.79,550.3,470.2,552.12z"/>
		</g>
		<g>
			<path class="st1" d="M424.02,545.13c1.59,3.65,3.46,7.21,5.5,10.89c2.63-6.75,3.41-13.61,3.07-19.89
				c-0.18-3.14-0.51-6.25-1.13-9.11c-0.3-1.43-0.66-2.8-1.07-4.13c-0.38-1.37-0.82-2.68-1.3-3.93
				c-3.94-10.04-10.21-16.43-20.82-18.23c-4.32,7.49-8.52,14.83-11.87,22.73c-0.83,1.96-1.35,4.03-1.59,6.16
				c-0.2,2.09-0.1,4.23,0.28,6.38c0.72,4.38,2.77,8.53,5.6,12.3c5.76,7.4,15.4,12.21,24.27,10.91c-2.98-8.12-5.17-16.2-6.64-24.13
				c0.45-0.22,0.91-0.44,1.37-0.66C420.97,537.98,422.37,541.6,424.02,545.13z"/>
		</g>
		<g>
			<path class="st1" d="M377.11,530.44c0.13-8.41,0.94-16.21,2.27-23.67c0.47,0,0.95,0.01,1.43,0.02c0,3.46,0.07,7.06,0.39,10.65
				c0.15,1.81,0.31,3.67,0.51,5.56c0.27,1.87,0.55,3.76,0.83,5.68c4.57-5.55,7.55-11.58,9.42-17.37c1.95-5.9,2.69-11.47,2.64-16.62
				c-0.23-10.29-3.96-18.17-13.01-23.78c-5.17,4.31-10.15,8.75-15,13.29c-3.55,3.32-6.16,7.22-7.61,11.44
				c-1.37,4.16-1.77,8.79-0.78,13.21C359.98,517.78,366.82,526.41,377.11,530.44z"/>
		</g>
		<g>
			<path class="st1" d="M363.13,475.24c3.64-4.73,6.18-9.69,7.74-14.49c3.05-9.67,2.15-18.38-4.63-26.35
				c-4.68,1.96-9.2,4.27-13.85,6.18c-5.28,2.14-9.6,4.83-12.91,8.13c-3.2,3.26-5.42,7.12-6.33,11.41
				c-1.92,8.54,1.24,18.99,10.07,28.25c1.6-4.57,3.36-8.87,5.18-12.92c1.95-4.1,3.78-7.89,5.99-11.63l1.06,0.47
				c-2.74,7.2-5.05,14.9-6.64,23.47C354.85,484.38,359.48,479.96,363.13,475.24z"/>
		</g>
		<g>
			<path class="st1" d="M346.03,434.34c4.63-2.78,8.7-6.36,11.99-10.27c3.28-3.94,5.68-8.2,6.89-12.78c1.08-4.6,1.2-9.52-0.65-15.25
				c-7.6,0.4-14.8,0.86-21.98,1.88c-4.18,0.59-7.91,2.25-11.03,4.8c-3.21,2.53-5.62,5.96-7.28,9.89
				c-3.21,7.83-2.62,17.71,2.63,25.07c2.6-3.36,5.35-6.54,8.02-9.52c2.84-3,5.6-5.82,8.5-8.47c0.37,0.27,0.76,0.54,1.13,0.81
				c-4.62,5.69-9.12,11.97-13.04,18.88C336.4,439.04,341.48,437.1,346.03,434.34z"/>
		</g>
		<g>
			<path class="st1" d="M332.45,362.17c-5.69,5.96-8.46,15.3-6.25,24.57c1.85-1.23,3.65-2.4,5.47-3.51c1.87-1.1,3.71-2.15,5.53-3.16
				c3.59-2.01,7.34-3.79,10.99-5.41l0.69,1.01c-1.58,0.98-3.18,2-4.78,3.05c-1.54,1.11-3.08,2.22-4.63,3.33
				c-3.19,2.29-6.14,4.81-9.26,7.52c6.11,1.41,12.09,0.86,17.44-0.64c5.29-1.53,10.25-3.97,14.17-6.89
				c7.94-5.81,12.7-13.59,11.53-22.28c-6.13-1.73-12.33-3.28-18.64-4.56c-4.16-0.84-8.45-0.73-12.21,0.52
				C338.79,356.98,335.15,359.13,332.45,362.17z"/>
		</g>
		<g>
			<path class="st1" d="M345.3,343.07c3.43,3.07,8.05,4.58,12.85,5.08c4.96,0.57,10.26,0.25,14.92-0.84
				c1.16-0.28,2.29-0.61,3.37-0.99c1.18-0.31,2.31-0.68,3.38-1.1c2.15-0.85,4.08-1.92,5.72-3.29c1.7-1.32,3.38-2.7,4.6-4.58
				c0.63-0.92,1.18-1.94,1.65-3.07c0.51-1.09,1.05-2.17,1.45-3.42c-5.23-3.9-10.18-7.28-15.1-10.51c-3.41-2.23-7.11-3.47-10.95-3.71
				c-1.92-0.12-3.86,0.01-5.8,0.37c-1.95,0.35-3.89,0.95-5.59,1.92c-3.47,1.87-6.84,4.57-9.36,8.03c-2.31,3.61-4,7.83-4.64,12.31
				c5.87-1.11,11.38-1.85,16.69-2.31c0.09,0.57,0.19,1.13,0.28,1.7c-2.17,0.6-4.38,1.25-6.65,1.96
				C349.88,341.37,347.45,342.09,345.3,343.07z"/>
		</g>
		<g>
			<path class="st1" d="M404.7,319.32c2.05-0.17,4.03-0.55,5.9-1.26c3.65-1.61,7.42-3.47,10.86-7.12
				c-2.95-4.29-6.05-8.23-8.98-12.35c-2.58-3.65-5.61-6.46-9.03-8.37c-3.47-2-7.12-2.72-10.95-2.51c-3.82,0.22-7.88,1.24-11.39,3.74
				c-3.57,2.38-7.09,5.5-9.52,9.97c2.66,0.45,5.2,0.91,7.67,1.46c2.56,0.65,5.03,1.33,7.45,2.06l-0.22,1.61
				c-4.58-0.6-8.97-0.59-14.1-0.52c4.06,4.38,8.59,7.52,13.04,9.66c2.24,1.09,4.4,1.84,6.62,2.49c2.25,0.68,4.45,1.13,6.56,1.33
				C400.73,319.7,402.76,319.65,404.7,319.32z"/>
		</g>
		<g>
			<path class="st1" d="M438.96,304.63c0.48,0.03,0.95,0.03,1.43,0.02c0.49,0.03,0.97,0.06,1.46,0.07c1.93,0.02,3.86-0.27,5.77-0.91
				c0.96-0.29,1.92-0.78,2.89-1.15c0.98-0.38,1.95-0.83,2.94-1.39c-2.07-7.79-4.35-14.21-6.88-18.78c-2.53-4.64-5.37-7.88-8.72-9.89
				c-1.66-0.97-3.5-1.81-5.42-2.04c-1.92-0.26-4-0.23-6.25,0.07c-2.23,0.36-4.71,0.75-7.23,1.83c-2.54,1.05-5.25,2.37-8.16,3.93
				c5.37,3.27,9.79,6.31,13.94,9.44c-0.2,0.32-0.39,0.64-0.6,0.97c-4.1-1.71-8.42-3.35-13.44-5.04c1.97,5.23,5.06,9.55,8.51,12.98
				c3.47,3.46,7.26,5.9,11.08,7.53c1.95,0.92,3.89,1.6,5.82,1.99C437.05,304.45,438.01,304.58,438.96,304.63z"/>
		</g>
		<g>
			<path class="st1" d="M498.67,625.23c9.94-5.41,14.86-14.77,12.49-24.61c-4.55,3.93-9.1,7.31-13.87,10.76
				c-0.34-0.32-0.68-0.64-1.03-0.95c4.68-4.72,9.09-9.24,13.18-14.21c-0.53-0.94-1.06-1.9-1.58-2.83
				c-4.11,1.02-8.42,1.46-12.66,2.17c-4.25,0.47-8.46,1.29-12.48,2.35c-3.87,1.05-6.68,2.77-8.84,4.85
				c-2.15,2.03-3.65,4.51-4.89,7.18c-2.51,5.34-3.92,11.47-8.04,16.28C474.16,631.96,488.88,630.64,498.67,625.23z"/>
		</g>
		<g>
			<path class="st1" d="M486.59,288.06c-0.54-4.76-1.42-9.67-3.46-13.71c-2.01-4.04-6.38-7.02-11.64-8.1
				c-2.63-0.45-5.48-0.53-8.3-0.28c-1.41,0.15-2.82,0.28-4.19,0.69c-1.37,0.42-2.71,0.92-3.99,1.5c4.51,4.24,8.42,9.05,11.92,13.65
				l-0.85,0.88c-1.8-1.73-3.68-3.47-5.67-5.22c-1.99-1.71-4.07-3.18-6.28-4.81c-0.9,4.25,0.11,8.57,2.06,12.51
				c0.98,1.96,2.2,3.83,3.57,5.54c1.37,1.86,2.91,3.58,4.53,5.1c1.63,1.51,3.35,2.81,5.15,3.83c1.79,1.12,3.63,2.19,5.56,2.8
				c0.96,0.32,1.95,0.55,2.95,0.69c1.01,0.13,2.04,0.17,3.06,0.29c2.06,0.15,4.24-0.1,6.55-0.8
				C487.27,297.8,487.12,292.87,486.59,288.06z"/>
		</g>
		<g>
			<path class="st1" d="M445.38,619.45c5.34-1.42,9.93-4.36,13.05-7.88c3.15-3.57,4.89-7.96,4.94-12.91c-2.75,1-5.54,1.98-8.4,2.94
				c-0.25-0.43-0.5-0.86-0.75-1.28c2.56-2.13,5.05-4.28,7.56-6.54c-2.6-1.37-5.04-2.46-7.35-3.3c-2.3-0.92-4.48-1.56-6.6-1.91
				c-4.25-0.62-8.12-0.5-12.07,1.05c-3.96,1.55-7.83,3.98-12.02,7.82c-4.18,3.8-8.62,8.82-13.48,14.95
				C420.62,620.48,434.66,622.69,445.38,619.45z"/>
		</g>
		<g>
			<path class="st1" d="M406.51,574.28c-3.81-1.58-7.89-2.27-12.06-3.07c-8.48-1.48-13.84,0.78-18.59,4.4
				c-4.73,3.56-8.67,8.36-14.36,10.57c9.48,11.06,23,16.49,34.04,15.96c11.26-0.41,19.37-6.77,22.47-16.56
				c-2.87,0.76-5.7,1.55-8.58,2.18c-2.89,0.58-5.8,1.12-8.77,1.62c-0.17-0.46-0.34-0.92-0.51-1.38c5.87-1.95,11.53-3.87,17.61-6.72
				C414.12,578,410.4,575.67,406.51,574.28z"/>
		</g>
		<g>
			<path class="st1" d="M497.66,279.51c-0.93-1.02-1.89-2.06-2.89-3.16c-1.58,4.97-1.52,9.88-0.63,14.26
				c0.86,4.58,2.52,8.79,4.67,12.16c2.3,3.23,4.48,6.33,7.31,8.08c1.44,0.82,2.81,1.7,4.36,2.22c1.54,0.53,3.21,0.76,5.03,0.68
				c2.97-6.42,4.81-12.23,5.5-17.43c0.7-5.2,0.29-9.87-1.42-13.39c-0.82-1.81-1.92-3.42-3.25-4.84c-1.33-1.41-2.89-2.68-4.73-3.41
				c-3.66-1.56-8.1-2.39-13.17-1.8c1.13,3.06,2.01,6.39,2.84,9.5c-0.36,0.15-0.73,0.29-1.08,0.44
				C499.36,281.72,498.52,280.62,497.66,279.51z"/>
		</g>
		<g>
			<path class="st1" d="M343.3,526.35l1.33-2.6c-5.88-5.35-10.9-11.99-16.85-17.09c-5.71-5.01-11.13-5.4-16.53-4.59
				c-5.43,0.79-10.92,2.9-16.87,2.19c2.33,13.37,10.07,23.96,19.36,28.78c9.29,4.96,19.67,4.34,28.58-1.85
				c-3.98-1.29-7.41-2.69-10.94-4.13l0.32-1.25C335.64,526.08,339.48,526.27,343.3,526.35z"/>
		</g>
		<g>
			<path class="st1" d="M316.99,492.34c-2.41-2.05-4.54-4.09-7.88-7.24c4.84,1.19,7.94,1.83,11.02,2.43l1.7-2.28
				c-4.71-6.54-7.98-14.27-12.77-20.64c-2.09-2.9-4.37-4.7-6.8-5.82c-2.39-1.14-4.9-1.6-7.52-1.81c-5.22-0.43-10.75,0.26-15.98-1.98
				c-1.33,12.96,3.56,24.87,11.09,31.82c3.72,3.53,8.18,5.83,12.83,6.77C307.3,494.57,312.15,494.15,316.99,492.34z"/>
		</g>
		<g>
			<path class="st1" d="M537.85,333.35c4.78-4.84,8.43-9.67,10.76-14.3c2.22-4.53,3.18-8.91,2.95-12.91c-0.06-1-0.19-1.98-0.39-2.92
				c-0.23-0.92-0.58-1.77-0.97-2.6c-0.8-1.66-1.87-3.18-3.2-4.52c-2.55-2.8-6.58-4.32-11.14-4.93c0.2,4.14,0.21,8.12,0.07,11.97
				l-1.13,0c-0.76-3.45-1.64-7-2.81-11.09c-5.33,8.7-6.77,17.16-5.62,23.82c0.42,3.58,1.75,6.55,3.64,9.41
				C531.75,328.27,534.61,330.64,537.85,333.35z"/>
		</g>
		<g>
			<path class="st1" d="M307.04,445.97c0.68-11.45,0.17-18.63-4.58-24.5c-2.27-2.94-5.65-5.54-10.17-8.16
				c-4.46-2.63-10.16-5.26-17.24-8.35c-3.86,12.63-1.28,25.98,4.61,34.35c2.85,4.24,6.63,7.27,10.59,8.82
				c3.98,1.55,8.25,1.6,12.52,0.04c-2.48-2.74-5.02-5.51-7.35-8.4c0.24-0.3,0.48-0.6,0.72-0.88
				C299.58,441.38,303.29,443.69,307.04,445.97z"/>
		</g>
		<g>
			<path class="st1" d="M305.77,378.13c-1.6-3.53-4.31-6.99-8.11-10.58c-3.74-3.56-8.54-7.22-14.52-11.14
				c-6.32,11.21-7.59,23.53-2.58,34.4c4.17,9.16,10.8,13.85,20.02,14.13c-1.85-3.81-3.11-6.56-4.35-9.34
				c0.3-0.21,0.64-0.43,0.96-0.63c2.3,2.5,4.69,4.93,7.15,7.34C308.28,392.53,309.22,385.24,305.77,378.13z"/>
		</g>
		<g>
			<path class="st1" d="M312.51,360.25c1.54-2.16,2.82-4.23,3.84-6.23c1.05-1.99,1.92-3.88,2.48-5.76
				c1.02-3.77,1.54-7.44,0.78-11.26c-0.72-3.82-2.47-7.8-5.23-12.09c-2.66-4.24-6.23-8.75-10.88-13.73
				c-4.79,4.9-7.66,10.82-9.7,16.45c-2.14,5.73-2.39,11.03-1.82,15.73c1.4,9.53,7.13,16.04,15.83,17.29
				c-0.51-2.31-0.91-4.49-1.33-6.72l1.32-0.43C309.31,355.77,310.87,357.99,312.51,360.25z"/>
		</g>
		<g>
			<path class="st1" d="M566.76,348.43c3.4-3.38,5.73-6.83,6.5-10.12c0.83-3.31,0.61-6.68-0.87-9.95c-1.67-3.14-4.22-6.41-8.09-9.3
				c-1.06,3.41-2.59,6.85-3.98,10c-0.8-1.71-0.52-3.02-0.44-4.36c0.09-1.49-0.16-2.88-0.31-4.75c-3.74,2.75-6.51,5.94-8.46,9.16
				c-2,3.27-3.37,6.72-3.85,9.98c-0.91,6.58,0.45,12.95,5.45,19.53C558.68,355.23,563.32,351.83,566.76,348.43z"/>
		</g>
		<g>
			<path class="st1" d="M325.7,322.17c0.08-3.91,0.08-7.79,0.45-11.55c0.32-0.02,0.64-0.03,0.95-0.05
				c0.74,3.69,1.98,7.55,3.18,11.48c2.02-1.92,3.54-3.87,5.22-5.51c1.6-1.69,2.92-3.34,4.01-5c2.16-3.31,3.21-6.75,3.71-10.27
				c0.41-3.58-0.12-7.58-1.5-12.25c-1.36-4.66-3.63-10.07-6.41-16.21c-2.82,1.29-5.12,3.19-7.38,5.09
				c-2.21,1.94-4.21,4.06-5.93,6.28c-1.79,2.17-3.02,4.68-4.06,7.12c-1.03,2.45-1.77,4.93-2.21,7.35c-0.42,2.44-0.62,4.76-0.36,7.07
				c0.28,2.32,0.86,4.53,1.73,6.56C318.84,316.33,321.74,319.7,325.7,322.17z"/>
		</g>
		<g>
			<path class="st1" d="M357.58,290.32c2.45-1.55,4.62-3.02,6.51-4.45c1.92-1.41,3.73-2.59,5.2-3.92c2.99-2.59,4.93-5.44,6.17-8.66
				c2.61-6.28,1.87-14.88-0.35-28.61c-6.11,2.05-11.71,4.81-16.05,8.39c-4.28,3.7-7.55,7.83-9.56,11.97
				c-3.8,8.72-2.51,17.22,3.62,23.5c1.12-3.02,2.21-5.92,4.22-10.83C357.29,283.3,357.4,286.63,357.58,290.32z"/>
		</g>
		<g>
			<path class="st1" d="M559.35,366.59c-1.63,2.86-2.43,5.87-2.51,9.09c-0.18,1.63-0.15,3.3,0.1,5.05c0.13,0.88,0.31,1.76,0.54,2.68
				c0.24,0.92,0.35,1.85,0.61,2.82c13.05-2.31,20.59-5.98,24.46-11.37c2.02-2.71,2.46-5.79,2.23-9.34c-0.19-1.76-0.42-3.67-1.21-5.6
				c-0.77-1.94-1.76-3.98-2.98-6.1c-2.39,3.18-4.69,6.02-7.04,8.69c-0.21-0.19-0.43-0.4-0.64-0.59c1.12-2.75,2.24-5.6,3.48-9.08
				C567.84,355.81,562.16,361.01,559.35,366.59z"/>
		</g>
		<g>
			<path class="st1" d="M404.37,262.8c3.45-1.52,6.04-3.54,8.05-6.33c1.99-2.86,3.49-6.21,4.67-10.64
				c1.18-4.44,2.05-9.93,2.94-16.73c-12.08-0.63-23.26,4.91-29.28,12.02c-6.04,7.42-7.08,15.81-2.19,22.5
				c1.84-3.03,3.67-5.93,5.61-8.86l1.09,0.33c-1.38,3.96-2.64,7.86-3.82,12.04C396.81,265.9,400.92,264.34,404.37,262.8z"/>
		</g>
		<g>
			<path class="st1" d="M448.11,224.63c-2.69,0.5-5.21,0.98-7.45,2c-2.25,0.97-4.28,2.09-6.03,3.34c-3.52,2.5-5.97,5.51-7.21,8.85
				c-1.23,3.45-1.27,7.22-0.15,11.11c1.93-1.57,3.83-2.7,7.61-5.12c-2.52,4.18-3.83,6.51-5.14,9.03c4.92,0.73,9.01,0.9,12.56,0.17
				c0.89-0.18,1.74-0.41,2.57-0.69c0.83-0.22,1.64-0.49,2.41-0.81c1.55-0.65,3-1.52,4.38-2.64c2.75-2.23,5.21-5.42,7.56-9.64
				c2.36-4.08,4.61-9.14,6.92-15.35C459.66,223.44,453.51,223.77,448.11,224.63z"/>
		</g>
		<g>
			<path class="st1" d="M584.18,404.47c1.36-4.23,1.63-8.96,1.66-14.08c-2.52,0.92-4.26,1.52-6.51,2.24c0.79-2,1.27-3.2,1.98-4.99
				c-4.59,0.55-8.6,1.72-11.95,3.23c-1.68,0.76-3.17,1.62-4.51,2.55c-1.45,0.93-2.72,1.93-3.82,3.01
				c-4.27,4.37-6.13,9.74-5.63,17.03C565.89,414.03,578.17,419.26,584.18,404.47z"/>
		</g>
		<g>
			<path class="st1" d="M509.15,248.11c-1.41,1.69-1.99,3.92-3.5,7.11c3.77-0.88,5.9-1.33,8.03-1.77l0.63,1.07
				c-2.4,1.38-4.76,2.78-7.7,4.66c2.66,1.52,5.13,2.74,7.46,3.68c2.32,0.94,4.51,1.56,6.57,2.25c4.13,1.21,7.88,1.36,11.42,0.59
				c6.9-1.21,13.15-6.11,19.02-14.11c-4.09-3.34-8.24-6.13-12.5-7.71c-4.18-1.67-8.28-2.88-11.96-2.99
				C519.28,240.78,513.23,243.24,509.15,248.11z"/>
		</g>
		<g>
			<path class="st1" d="M575.86,270.46c-3.93-3.23-8.14-5.63-12.54-6.48c-4.32-0.96-8.45-0.83-12,0.43
				c-3.55,1.25-6.65,3.82-8.86,7.22c2.96,0.18,5.28,0.71,9.72,1.49c-4.92,1.31-7.83,2.19-11.24,3.4c4.33,3.74,7.75,6.62,10.89,8.62
				c2.97,2.2,5.71,3.45,8.72,3.87c1.51,0.21,3.09,0.21,4.8,0.02c1.65-0.14,3.43-0.47,5.4-0.99c3.95-1.02,8.68-2.76,14.71-4.97
				c-1.18-2.5-2.58-4.85-4.15-7.01C579.79,273.84,577.79,272.12,575.86,270.46z"/>
		</g>
		<g>
			<path class="st1" d="M594.96,322.36c4.61-0.47,9.14-1.39,13.76-1.95c-0.64-2.51-1.42-4.93-2.33-7.21
				c-0.85-2.31-2.16-4.32-3.36-6.27c-1.25-1.92-2.6-3.69-4-5.27c-0.7-0.79-1.41-1.54-2.15-2.21c-0.79-0.66-1.58-1.27-2.38-1.83
				c-6.44-4.48-13.09-5.63-19.18-2.68c-2.81,1.37-5.18,7.25-4.38,10.31c0.76,2.51,2.11,4.8,3.86,6.83c1.81,1.99,3.63,4,5.92,5.54
				c2.22,1.58,4.71,2.83,7.18,3.67C590.28,322.16,592.7,322.6,594.96,322.36z"/>
		</g>
		<g>
			<path class="st1" d="M591.1,345.77c1.27,3.21,2.72,5.74,5.06,7.73c4.72,3.98,11.84,6.03,23.61,8.13c0.34-2.66,0.41-5.3,0.25-7.85
				c-0.32-2.52-0.87-4.96-1.62-7.24c-0.74-2.29-1.68-4.43-2.78-6.37c-1.17-1.92-2.6-3.61-4.08-5.08c-2.99-2.93-6.41-4.89-10.03-5.67
				c-3.75-0.74-7.6-0.33-11.41,1.23c1.28,0.9,2.26,1.57,3.21,2.31c0.88,0.76,1.72,1.52,4.43,4.08c-4.81-1.82-7.05-2.64-9.75-3.38
				C588.95,338.6,589.72,342.6,591.1,345.77z"/>
		</g>
		<g>
			<path class="st1" d="M599.59,390.28c1.74,2.63,4.3,4.94,7.71,7.07c3.28,2.12,7.45,4.05,12.54,5.86
				c3.41-10.94,2.19-21.54-1.78-28.19c-3.72-6.78-10.21-9.57-16.99-7.78c0.62,1.36,1.44,2.65,2.29,4.93c-2.4-1.27-4.3-2.13-6.27-3
				C595.63,378.59,596.23,385,599.59,390.28z"/>
		</g>
		<g>
			<path class="st1" d="M608.21,442.67c2.94-4.12,5.05-8.55,6.26-12.83c1.09-4.33,1.01-8.63,0.26-12.37
				c-0.4-1.88-0.99-3.63-1.83-5.23c-0.9-1.61-1.99-3.07-3.26-4.34c-2.54-2.55-5.78-4.35-9.63-5.35c0.57,2.29,1.09,4.33,1.88,7.9
				c-2.54-2.65-4.26-4.32-6.14-6.1C589.02,421.92,590.73,427.23,608.21,442.67z"/>
		</g>
		<g>
			<path class="st1" d="M232.9,726.63l0.38,4.98C233.79,730.08,233.67,728.42,232.9,726.63z"/>
		</g>
		<g>
			<path class="st1" d="M232.52,721.65v3.83c0.25,0,0.38-0.63,0.38-1.91L232.52,721.65z"/>
		</g>
		<g>
			<path class="st1" d="M233.28,732.38l0.77,1.15c0,1.53,0.38,2.43,1.15,2.68v-1.15C235.2,733.78,234.56,732.89,233.28,732.38z"/>
		</g>
		<g>
			<path class="st1" d="M235.96,738.12c0.77,1.53,0.89,2.56,0.38,3.06l1.92,0.77c-0.26,0.26-0.38,0.64-0.38,1.15
				c0,0.77,0.19,1.28,0.57,1.53c0.38,0.26,0.57,0.77,0.57,1.53c0-0.77,0.19-1.02,0.57-0.77c0.38,0.26,0.7,0.51,0.96,0.77
				c0-0.77-0.64-2.23-1.92-4.41C237.37,739.6,236.47,738.38,235.96,738.12z"/>
		</g>
		<g>
			<polygon class="st1" points="622.17,762.26 622.17,761.5 621.02,762.26 			"/>
		</g>
		<g>
			<path class="st1" d="M739.03,687.93c-3.83,3.58-8.31,7.22-13.41,10.92c-5.11,3.71-9.07,6.46-11.88,8.24
				c-1.02,1.02-2.56,2.17-4.6,3.45c-2.05,1.28-4.34,2.81-6.89,4.6l-1.53,1.15c-2.3,0.77-3.9,1.53-4.79,2.3
				c-0.9,0.77-2.75,1.79-5.56,3.07c-2.82,1.28-5.31,2.55-7.47,3.83c-2.17,1.28-4.79,2.56-7.85,3.83
				c-6.13,3.06-12.01,5.24-17.63,6.51c-5.62,1.28-12.26,3.06-19.92,5.36c-2.05,0-2.87,0.14-2.49,0.38c0.38,0.26-0.45,0.39-2.49,0.39
				c-3.83,0.51-7.22,0.77-10.16,0.77c-2.94,0-5.17-0.13-6.7-0.38l-5.75-0.77l-3.07-0.77c-2.05-0.51-3.96-1.21-5.75-2.11
				c-1.79-0.89-4.09-2.23-6.89-4.02l-2.3-2.3c-1.02-2.3-1.79-3.7-2.3-4.21c-0.52-0.51-1.03-2.04-1.54-4.6v-0.77l-0.38-1.15
				l0.38-1.15c-0.26-1.02-0.45-2.05-0.57-3.07c-0.13-1.02,0.06-2.17,0.57-3.45c-0.51-0.51-0.45-1.15,0.19-1.92
				c0.63-0.77,0.96-1.66,0.96-2.68l-1.15-0.38l1.92-2.68c0-0.25,0.13-0.44,0.38-0.58c0.25-0.13,0.25-0.32,0-0.57
				c-0.51-1.02-0.32-1.92,0.57-2.68c0.89-0.77,1.34-1.78,1.34-3.06v-0.77h0.77c0.77-1.53,1.66-2.93,2.68-4.21
				c1.02-1.28,1.66-2.55,1.92-3.83c1.28-1.02,2.36-2.17,3.26-3.45c0.89-1.28,1.72-2.55,2.49-3.83c1.27-0.51,2.04-1.34,2.3-2.49
				c0.25-1.15,1.02-2.11,2.3-2.87c0.77,0,1.34-0.44,1.73-1.35c0.38-0.89,1.08-1.47,2.11-1.72c2.04-2.3,4.79-4.66,8.24-7.09
				c3.45-2.42,6.96-4.27,10.54-5.55c6.9-1.78,12-2.17,15.32-1.15c2.55,1.02,4.09,2.05,4.6,3.06c0.51,1.02,1.02,2.43,1.53,4.21
				c-0.51,1.79-0.64,3-0.38,3.64c0.25,0.64,0.13,1.6-0.38,2.87l-1.53,4.99l-1.15,2.68l-3.07,3.45c-0.26,0.77-0.45,1.21-0.57,1.34
				c-0.13,0.13-0.32,0.45-0.58,0.96l-1.92,3.06c-1.02,1.02-1.85,1.72-2.49,2.11c-0.64,0.38-0.96,0.96-0.96,1.72l1.15,1.53
				c4.6-1.02,8.05-2.87,10.34-5.55c2.3-2.68,5.11-4.91,8.43-6.7c0-1.53,0.51-2.81,1.53-3.83l4.6-0.77c0.51-1.53,1.53-2.23,3.06-2.11
				c1.54,0.13,3.07-1.09,4.6-3.64c2.3-1.53,4.34-3.7,6.13-6.51c1.78-1.53,3.45-3.26,4.98-5.17c1.53-1.92,2.55-3.38,3.06-4.41
				c0.77-1.02,1.08-2.11,0.96-3.26c-0.13-1.15,0.19-1.85,0.96-2.11c0-1.28,0.63-3.83,1.92-7.66c-0.26-2.81-1.79-5.23-4.6-7.28
				c-3.06-0.51-5.49-1.08-7.28-1.72c-1.79-0.63-4.47-0.83-8.05-0.57h-2.3c-1.79,0-2.94,0.13-3.45,0.38c-0.51,0-1.09,0-1.72,0
				c-0.64,0-0.96,0.38-0.96,1.15l0.38,0.77h-0.38c-1.02-1.53-1.85-1.78-2.49-0.77c-0.64,1.02-1.21,1.15-1.72,0.38l-3.06,1.53
				c-1.53,0.51-3.32,1.21-5.37,2.11c-2.05,0.9-3.45,1.34-4.22,1.34l-2.68,0.77c-1.53,1.53-3.2,2.43-4.98,2.68
				c-1.79,0.26-3.32,1.15-4.6,2.68c-0.77-0.25-1.28,0-1.53,0.77c-0.26,0.77-0.9,1.15-1.92,1.15h-0.38
				c-0.77,0.51-1.66,1.02-2.68,1.53c-1.03,0.51-1.54,1.41-1.54,2.68c-0.77,0.26-1.79,0.52-3.06,0.77c-1.28,0.26-2.43,0.77-3.45,1.54
				c-0.77,1.02-1.72,1.79-2.87,2.3c-1.15,0.51-2.49,1.41-4.02,2.68l-2.3,1.92c-2.3,1.28-4.73,2.94-7.28,4.98
				c-2.56,2.05-4.47,3.83-5.75,5.36c-3.58,3.33-6.39,5.75-8.43,7.28c-2.05,1.53-4.21,3.96-6.51,7.28c-2.56,2.56-4.21,4.28-4.98,5.17
				c-0.77,0.9-2.04,2.49-3.83,4.79l-0.77,1.92c-1.53,0.77-2.42,1.72-2.68,2.87c-0.25,1.15-0.63,1.98-1.15,2.49
				c-0.51,1.53-0.96,2.49-1.34,2.87c-0.38,0.38-0.96,1.09-1.73,2.11c-0.86,1.2-1.42,2.11-1.7,2.73c-2.18,1.26-4.36,2.46-6.54,3.59
				c-3.71,1.92-7.03,3.52-9.96,4.79c-2.94,1.28-4.92,1.92-5.94,1.92c-1.28,0.77-2.82,1.41-4.6,1.92c-1.79,0.51-3.64,0.96-5.56,1.34
				c-1.92,0.38-3.64,0.71-5.17,0.96c-1.53,0.26-2.68,0.64-3.45,1.15c-1.53-0.25-2.87-0.25-4.02,0c-1.15,0.26-2.49,0.26-4.03,0
				l-1.15-0.77c-1.54,0.51-2.68,0.38-3.45-0.38c-0.77-0.77-1.79-1.15-3.06-1.15h-0.38l-1.53-3.06l-1.53-0.38
				c-2.05-2.3-3.39-4.79-4.02-7.47c-0.64-2.68-0.96-4.27-0.96-4.79c-0.77-0.77-1.15-1.66-1.15-2.68c-0.52-1.53-0.64-2.42-0.38-2.68
				l-0.38-0.38c-0.26-2.55-0.33-5.42-0.19-8.62c0.13-3.19,0.19-6.06,0.19-8.62c0.51-1.28,0.63-2.55,0.38-3.83
				c-0.26-1.27-0.38-2.55-0.38-3.83c0,0.26,0.63-1.02,1.92-3.84c0-1.02-0.26-1.85-0.77-2.49c-0.51-0.63-0.9-1.59-1.15-2.87
				l-1.54-1.53c0,0.26-0.64,0.38-1.91,0.38c-0.51,0-1.09,0.45-1.72,1.34c-0.64,0.9-1.47,1.34-2.49,1.34l-2.3,1.15
				c-3.58,1.28-6.7,2.49-9.38,3.64c-2.68,1.15-4.28,1.98-4.79,2.49c-1.02,1.02-2.82,2.17-5.37,3.45c-2.56,1.28-4.09,1.91-4.6,1.91
				c-1.53,1.79-3.32,2.87-5.36,3.26c-2.05,0.38-4.09,1.47-6.13,3.26c-1.53,0.26-2.82,0.64-3.83,1.15c-1.02,0.51-2.17,1.02-3.45,1.53
				c-0.51,1.28-1.41,2.11-2.68,2.49c-1.28,0.38-2.43,0.96-3.45,1.73c-1.53,0-2.81,0.64-3.83,1.91c-1.02,1.28-2.3,2.17-3.83,2.68
				l-13.41,8.43c-1.28,0.77-2.56,1.47-3.83,2.11c-1.28,0.64-2.43,1.21-3.45,1.72c-1.02,0.77-2.17,1.41-3.45,1.92
				c-0.77,1.28-1.98,2.11-3.64,2.49c-1.66,0.39-2.62,1.22-2.87,2.5c-5.88,2.81-10.99,6.13-15.32,9.96
				c-1.79,0.51-3.07,1.34-3.83,2.49c-0.77,1.15-1.92,1.72-3.45,1.72h-0.38c0-1.27,0.38-2.36,1.15-3.26c0.77-0.89,1.4-1.85,1.92-2.87
				c-0.26-1.53,0.19-2.49,1.34-2.87c1.15-0.38,1.59-1.21,1.34-2.49v-0.38c1.02-0.77,2.3-2.55,3.83-5.37
				c1.53-2.81,2.68-4.72,3.45-5.75c-0.77-1.02-0.64-1.59,0.38-1.72c1.02-0.13,1.53-0.44,1.53-0.96v-0.77
				c0.77-0.51,1.15-1.27,1.15-2.3c0-1.02,0.51-1.78,1.53-2.3l1.92-5.75c1.27-0.77,2.36-2.3,3.26-4.6c0.89-2.3,1.73-4.08,2.49-5.36
				c1.78-1.02,2.74-2.55,2.87-4.6c0.13-2.04,0.58-3.96,1.34-5.75c0.25-0.77,0.7-1.59,1.34-2.5c0.63-0.89,0.96-1.72,0.96-2.49v-1.15
				c1.28-0.51,2.04-2.04,2.3-4.6c0.25-2.55,1.02-4.46,2.3-5.75c-0.51-1.28-0.38-2.23,0.38-2.87c0.77-0.63,1.15-1.47,1.15-2.49
				l-0.38-1.15c1.02-1.28,1.34-2.62,0.96-4.03c-0.38-1.4-0.19-2.74,0.57-4.02c-0.77-1.02-0.57-1.85,0.58-2.49
				c1.15-0.63,1.47-1.34,0.96-2.11h0.77l-0.77-1.15c0.77-0.51,1.02-1.28,0.77-2.3c-0.26-1.02-0.38-1.78-0.38-2.3
				c0-0.77-0.26-2.42-0.77-4.99l-1.53-0.77c-1.02,0-1.53,0.45-1.53,1.34c0,0.9-0.26,1.48-0.77,1.73c-1.02-0.51-1.6-0.32-1.72,0.57
				c-0.13,0.9-0.57,1.21-1.34,0.96h-0.77l-3.45,1.92c-1.02-0.51-1.41-0.25-1.15,0.77c0.25,1.02,0.13,1.53-0.38,1.53
				c-0.26,0-0.51-0.06-0.77-0.19c-0.26-0.13-0.51-0.19-0.77-0.19l-2.3,1.53l-2.3,3.83l-1.15-1.15l-2.3,1.53
				c-0.26,1.28-1.15,2.24-2.68,2.87c-1.53,0.64-3.13,1.41-4.79,2.3c-1.66,0.9-3.06,2.17-4.21,3.83c-1.15,1.67-1.6,4.16-1.34,7.47
				c0,1.53-0.07,3.06-0.19,4.6c-0.13,1.53-0.19,3.2-0.19,4.98l-0.77,0.77l-0.77,1.91c-0.26,0.77-0.38,1.92-0.38,3.45
				c0,1.53-0.38,2.68-1.15,3.45l0.38,1.15v1.53l-0.77-0.38c0,0.26-0.13,0.38-0.38,0.38c-0.26,0-0.38,0.13-0.38,0.38
				c0,0.77,0.25,1.41,0.77,1.92l-1.15,2.68c0-0.51-0.32-0.51-0.96,0c-0.64,0.51-0.96,1.15-0.96,1.92l0.38,0.38
				c-0.06,0.9-0.2,1.8-0.41,2.72l-1.11,1.12c-1.02,0.77-1.6,1.15-1.72,1.15c-0.13,0-0.96,0.77-2.49,2.3l-3.07,2.3
				c-1.02,1.53-1.91,2.43-2.68,2.68c-0.77,0.26-2.17,0.77-4.21,1.53h-0.38c-2.81,2.81-5.88,4.73-9.2,5.75
				c-1.53,1.02-2.94,1.86-4.21,2.49c-1.28,0.64-2.56,1.47-3.83,2.49c-2.3,0.51-3.77,1.41-4.41,2.68c-0.64,1.29-1.98,1.92-4.02,1.92
				l-3.06,1.53l-4.21,1.92c-1.28,1.79-2.94,2.43-4.98,1.92l-4.98,2.68l-8.04,3.45l-1.92,0.77l0.38,0.77c-2.05-0.25-4.02,0-5.94,0.77
				c-1.92,0.77-3.77,1.28-5.56,1.53l-3.06,0.38c0.77,0.77,0.38,1.02-1.15,0.77c-1.53-0.25-2.43-0.38-2.68-0.38l0.38,0.38l-4.6,0.77
				h-1.91c-2.3-0.25-3.51-0.38-3.64-0.38h-4.02c-0.51,0-2.68-0.63-6.51-1.91c-2.3-1.02-3.83-1.85-4.6-2.49
				c-0.77-0.63-2.05-1.85-3.83-3.64c-2.81-3.57-4.6-9.83-5.36-18.77c0.25-2.81,0.58-5.75,0.96-8.81c0.38-3.06,1.08-6,2.11-8.82
				c2.04-6.38,2.81-9.32,2.3-8.81l2.3-5.75c0.25-1.27,0.7-2.5,1.34-3.64c0.63-1.15,1.47-2.36,2.49-3.64
				c0.06-0.25,0.14-0.48,0.21-0.72c2.48,2.35,5.01,4.65,7.59,6.89c11.3,9.97,23.21,19.25,35.67,27.74
				c6.27-4.26,12.48-8.58,18.76-12.77c-2.9-1.75-5.77-3.54-8.6-5.39c-12.95-8.62-25.37-18.06-37.01-28.43
				c-2.12-1.92-4.2-3.89-6.27-5.86v-1.39c0.77-1.02,1.21-1.34,1.34-0.96c0.13,0.38,0.19-0.32,0.19-2.11
				c1.02-0.51,2.11-1.02,3.26-1.53c0.1-0.04,0.2-0.07,0.3-0.11c2.8-6.88,6.55-13.24,12.15-18.72v-0.7c0-0.25,0.25-0.96,0.77-2.11
				c0.51-1.15,1.02-2.36,1.53-3.64c0.51-1.27,1.08-2.42,1.72-3.45c0.63-1.02,1.21-1.78,1.72-2.3c1.78,0,2.93-1.02,3.45-3.06
				c0.77-0.77,2.11-2.5,4.02-5.18c1.92-2.68,3.89-5.42,5.94-8.24c2.04-2.81,3.96-5.3,5.75-7.47c1.79-2.17,2.93-3.26,3.45-3.26
				c0.51-1.02,1.08-1.85,1.72-2.49c0.63-0.63,1.21-1.21,1.73-1.72c1.02-1.53,2.11-2.81,3.26-3.83c1.15-1.02,2.11-2.3,2.87-3.83
				c1.78-1.02,3.51-2.55,5.17-4.6c1.66-2.04,3.26-3.19,4.79-3.45l-0.48-0.96c3.37,1.99,6.92,3.42,10.41,4.19
				c10.86,2.39,20.76-1.16,25.83-9.78c-5.91-0.04-11.4-0.52-17.11-1.09l-0.2-1.32c2.9-0.11,5.82-0.36,8.78-0.62
				c2.95-0.26,6.01-0.6,9.32-1.13c-7.17-9.63-13.64-14.74-21.95-16.12c-8.28-1.34-18.5,1.2-31.77,7.11
				c3.09,7.24,8.36,13.17,14.38,17.29c-8.96,4.5-16.02,8.57-21.16,12.21c-5.24,3.71-10.15,7.6-14.75,11.68
				c-4.6,3.84-8.62,7.99-12.07,12.46c-3.45,4.47-8.49,10.54-15.13,18.2c-2.3,3.58-4.92,7.22-7.85,10.92
				c-2.24,2.82-4.14,5.01-5.71,6.57c-4.03-4.35-7.94-8.81-11.73-13.37c-9.87-12.11-18.79-24.98-26.82-38.4
				c-33.12-56.03-48.5-122.71-42.29-187.9c3.11-32.56,11.19-64.67,24.18-94.79c12.97-30.17,31.6-58.01,54.88-81.35
				c34.93-35.24,80.02-60.35,128.54-71.56c48.48-11.37,100.28-8.62,147.43,7.98c21.21,7.43,41.74,17.77,60.03,31.16
				c18.38,13.3,34.6,29.52,48.15,47.72c27.09,36.45,42.64,81.31,44.05,126.75c1.06,31.89-4.89,64-17.19,93.43
				c-6.25,14.78-14.29,28.82-23.94,41.67c-9.79,12.73-21.03,24.38-33.69,34.28l2.67,3.94c2.31-1.7,4.41-3.66,6.64-5.47
				c13.08-10.94,24.46-23.85,34.26-37.82c9.6-14.06,17.48-29.54,23.25-45.35c11.67-31.73,16.22-66.14,13.25-99.93
				c-2.98-33.81-13.63-66.88-30.63-96.33c-17.16-29.37-40.81-55.03-68.93-74.41c-14.02-9.61-29.15-17.7-44.83-24.05
				c-15.56-6.37-31.72-11.43-48.24-14.8c-33.04-6.85-67.37-7.55-100.72-2.04c-33.36,5.48-65.71,17.12-94.99,34.19
				c-29.28,17.07-55.4,39.65-76.6,66.21c-10.64,13.33-20.06,27.65-28.1,42.69c-1.92,3.81-4.03,7.53-5.78,11.42
				c-1.75,3.88-3.58,7.76-5.25,11.65c-3.11,7.85-6.34,15.65-8.89,23.72c-1.37,3.99-2.73,7.99-3.81,12.09
				c-1.13,4.07-2.36,8.12-3.39,12.22l-2.84,12.37c-0.97,4.12-1.55,8.32-2.34,12.47c-2.77,16.69-4.58,33.59-4.66,50.55
				c-1.18,67.85,19.66,135.79,58.26,191.82c7.28,10.84,15.56,20.98,24.07,30.87c1.93,2.11,3.88,4.21,5.84,6.29
				c-0.84,1.28-1.95,2.38-3.35,3.18c-1,1.46-2.18,3.25-3.54,5.36c-0.12,0.21-0.25,0.4-0.38,0.59c-0.02,0.03-0.04,0.05-0.05,0.08
				c-2.05,3.2-4.35,7.6-6.9,13.22c-1.53,2.05-3.32,5.17-5.36,9.38c-2.05,4.21-3.45,7.85-4.21,10.92c-2.3,4.09-3.96,7.73-4.98,10.92
				c-1.02,3.2-1.53,5.3-1.53,6.32c-0.26,1.79-0.51,3.64-0.77,5.56c-0.26,1.91-0.26,3.51,0,4.79v1.53l-0.77,0.77v3.06
				c0,1.02-0.07,2.05-0.19,3.06c-0.13,1.02-0.07,1.92,0.19,2.68c0.77,9.2,3.26,16.22,7.47,21.07c4.21,4.86,11.05,7.54,20.5,8.05
				c6.38-0.25,11.81-0.83,16.28-1.72c4.47-0.89,9.13-2.36,13.99-4.41c2.04,0,3.45-0.51,4.21-1.53c0.77-1.02,2.04-1.53,3.83-1.53
				c0.51-0.51,2.36-1.47,5.56-2.87c3.19-1.4,5.42-2.49,6.71-3.26c2.04-0.51,3.76-1.34,5.17-2.49c1.4-1.15,2.74-2.11,4.02-2.87
				c0.51-0.51,1.21-0.96,2.11-1.34c0.89-0.38,1.72-0.83,2.49-1.34c2.04-0.77,3.89-1.78,5.56-3.07c1.66-1.28,3.51-2.17,5.56-2.68
				c0.77-0.51,1.85-1.21,3.26-2.11c1.4-0.89,2.87-1.78,4.41-2.68c1.53-0.89,2.93-1.78,4.21-2.68c1.27-0.89,2.04-1.59,2.3-2.11
				c1.78,0.26,3.07-0.25,3.83-1.53c0.77-1.27,1.78-2.04,3.06-2.3c2.3-1.53,5.11-3.26,8.43-5.18c3.32-1.92,5.87-4.15,7.66-6.7
				c0.51-0.51,1.72-1.28,3.64-2.3c1.92-1.02,3.64-2.17,5.17-3.45c0.56-0.46,1.07-0.9,1.56-1.34c0.45,2.45,0.13,4.24-0.99,5.36
				c-1.15,1.15-1.98,3-2.49,5.55h-1.15c-1.28,1.79-2.17,3.97-2.68,6.52c-1.78,1.02-2.68,2.05-2.68,3.06c0,0.51,0.38,0.77,1.15,0.77
				l-1.53,3.06c-1.28,0.51-2.17,2.05-2.68,4.6c-0.51,2.56-1.02,4.6-1.53,6.13c-1.02,1.03-2.04,2.5-3.06,4.41
				c-1.02,1.92-2.04,3.83-3.07,5.75c-1.02,1.92-1.92,3.7-2.68,5.36c-0.77,1.66-1.53,2.62-2.3,2.87l-0.77,4.22
				c1.28,1.28,2.3,1.92,3.07,1.92l0.77-0.38c-0.51,1.79-0.13,2.56,1.15,2.3c1.28-0.25,2.17,0.13,2.68,1.15
				c0.77-0.25,2.05-1.15,3.83-2.68c1.79-1.53,3.64-3.12,5.56-4.79c1.92-1.66,3.71-3.19,5.36-4.6c1.67-1.4,2.87-2.11,3.64-2.11
				l5.75-3.83c2.04-2.55,4.47-4.34,7.28-5.36c2.81-1.02,5.49-2.81,8.05-5.37c2.55-0.77,5.42-2.55,8.62-5.36
				c3.19-2.81,6.32-4.85,9.39-6.13c1.27,0,2.23-0.44,2.87-1.34c0.63-0.89,1.59-1.47,2.87-1.72c2.55-2.55,5.87-4.46,9.96-5.75
				c4.08-1.28,7.41-3.19,9.96-5.75c0.77-1.53,2.04-2.36,3.83-2.49c1.78-0.13,3.06-1.08,3.83-2.87c0.51,0.26,1.34,0.19,2.49-0.19
				c1.15-0.38,2.3-0.89,3.45-1.53c1.15-0.63,2.23-1.28,3.26-1.91c1.02-0.63,1.66-1.08,1.92-1.34c1.78,0.26,3.32-0.13,4.6-1.15
				c1.28-1.02,2.68-1.53,4.21-1.53c0.25,1.79,0.25,2.81,0,3.06c-0.26,0.26-0.13,1.15,0.38,2.68l0.77,3.06l-0.77,2.68
				c1.28,0.77,1.53,1.79,0.77,3.06c-0.77,1.28-0.51,2.43,0.77,3.45l-1.53,0.77c1.28,2.05,1.92,4.48,1.92,7.28
				c0.25,0.51,0.13,1.02-0.38,1.53c-0.51,0.51-0.38,1.15,0.38,1.91c-0.51,2.3,0.51,4.34,3.06,6.13l-0.77,0.77l1.53,1.15
				c-1.02,1.02-1.21,1.41-0.58,1.15c0.63-0.25,0.96,0,0.96,0.77l-0.38,0.77c0.77,2.05,1.47,3.78,2.11,5.18
				c0.63,1.41,2.23,2.62,4.79,3.64c0,0.51,0.25,1.02,0.77,1.53c0.51,0.51,0.77,1.15,0.77,1.92v0.77l1.92,1.15l0.38-0.77h1.91
				c-0.26,0.77-0.32,1.41-0.19,1.92c0.13,0.51,0.32,0.38,0.57-0.38c0.77-1.28,1.28-1.34,1.53-0.19c0.25,1.15,0.89,1.34,1.92,0.58
				c0.25,1.02,1.28,1.53,3.06,1.53c0.51,0,1.53-0.25,3.07-0.77c1.53,1.28,3.19,1.02,4.98-0.77v0.77c0.77-0.25,1.66-0.63,2.68-1.15
				c1.02-0.51,2.17-1.02,3.45-1.53c1.78,1.28,3.45,1.15,4.98-0.38c0.77,0,2.36-0.44,4.79-1.34c2.43-0.89,4.92-1.98,7.47-3.26
				c2.55-1.28,4.91-2.55,7.09-3.83c2.17-1.27,3.51-2.42,4.02-3.45c1.27,0.26,3.06-0.32,5.37-1.73c2.3-1.4,3.83-2.23,4.6-2.49
				c2.04-1.28,4.02-2.68,5.94-4.21c1.92-1.53,3.76-2.55,5.55-3.06l5.75-3.06l0.77-1.15c0.16,0.04,0.33,0.04,0.49,0.05l-0.49,1.1
				c-0.25,1.28-0.51,2.36-0.77,3.26c-0.25,0.9-0.38,2.62-0.38,5.17c-0.25,2.3-0.25,2.94,0,1.92c0.26,0.77,0.19,1.41-0.19,1.92
				c-0.38,0.51-0.57,1.79-0.57,3.84l1.15,7.28c0.51,1.79,1.09,3,1.72,3.64c0.64,0.64,1.09,1.47,1.34,2.49h1.15l2.68,2.68l-1.92-0.38
				l4.21,3.84c-0.25-0.25-0.12-0.63,0.39-1.16c0.51-0.51,0.77-0.51,0.77,0v1.16l5.75,1.92c0.26,1.02,0.83,1.34,1.72,0.96
				c0.89-0.38,1.72-0.44,2.49-0.19l-1.15,0.77l0.38,0.38l4.21-1.15c0.25,1.28,1.08,1.79,2.49,1.53c1.4-0.25,2.49-0.13,3.26,0.38
				h1.92l-1.15-1.15h1.54h3.45l1.92,1.15l1.91-1.92h1.92c0-0.51,0.32-0.51,0.96,0c0.63,0.51,1.08,0.38,1.34-0.38l1.92,1.15
				l0.77-1.15h0.77l-0.77,1.15l1.92-0.77v-0.38c1.28-0.77,2.68-1.21,4.21-1.34c1.54-0.13,2.55,0.07,3.07,0.58
				c0.25-0.25,0.13-0.44-0.38-0.58c-0.51-0.13-0.64-0.19-0.38-0.19l3.45,0.38c1.02-0.77,1.97-1.21,2.87-1.35
				c0.89-0.12,1.72-0.44,2.49-0.96l-0.38-0.77l2.68-0.77c0-0.25,0.25-0.38,0.77-0.38l3.45-0.77c-1.03-0.77-0.71-1.02,0.96-0.77
				c1.66,0.26,2.62,0.38,2.87,0.38l-0.77-0.38c0.77,0,1.78-0.38,3.07-1.15c0.51-0.25,1.15-0.38,1.92-0.38l1.92-0.77v0.77l3.06-0.77
				c-0.26-1.02-0.26-1.47,0-1.34c0.25,0.13,0.51,0.19,0.77,0.19c0.77,0,1.15-0.25,1.15-0.77c0-0.51,0.38-0.51,1.15,0
				c1.02-0.51,2.04-0.89,3.06-1.15c1.02-0.25,1.78-0.77,2.3-1.53c2.04,0,4.02-0.57,5.94-1.72c1.91-1.15,3.13-1.72,3.64-1.72
				c0.25-0.25,0.51-0.38,0.77-0.38c0.25,0,0.63-0.13,1.15-0.38c0.77,0,1.4-0.44,1.92-1.34c0.51-0.89,1.15-1.34,1.92-1.34h1.15
				l1.53-0.38c1.28-0.77,2.74-1.4,4.41-1.92c1.66-0.51,2.74-1.27,3.26-2.3l2.3-0.77l1.53-2.3c0.51,0.51,1.02,0.77,1.53,0.77
				c0.51,0,0.38-0.13-0.38-0.38c-0.26-1.53,0.25-2.11,1.53-1.72c1.27,0.38,1.92,0.19,1.92-0.58c2.3-0.51,4.41-1.47,6.32-2.87
				c1.92-1.4,3.51-2.11,4.79-2.11c0.25-0.77,0.89-1.21,1.91-1.34c1.02-0.13,1.79-0.57,2.3-1.34c1.28,0,2.3-0.38,3.06-1.15
				c0.77-0.77,2.3-1.92,4.6-3.45c-1.79,1.02-2.81,1.34-3.06,0.96c-0.26-0.38-0.13-0.57,0.38-0.57l3.45-1.53l6.9-4.99
				c1.02,0.26,1.72-0.13,2.11-1.15c0.38-1.02,1.08-1.53,2.11-1.53h0.38l2.3-2.3l1.53,0.38l10.34-9.58c2.04-1.27,3.45-2.17,4.22-2.68
				c0.77-0.51,1.78-1.54,3.07-3.07c1.53-1.27,2.49-2.17,2.87-2.68c0.38-0.51,0.96-1.4,1.72-2.68l0.38-3.06
				c-0.26-1.78-0.77-3.19-1.53-4.21L739.03,687.93z M676.96,650.77c-0.51-0.25-0.83-0.57-0.96-0.96c-0.13-0.38-0.19-0.83-0.19-1.34
				l1.15,0.77V650.77z M664.31,645.41l0.77,0.77c0.77,0,1.47-0.13,2.11-0.38c0.63-0.25,1.08-0.38,1.34-0.38l0.39-0.38l0.38,0.38
				h1.15l-1.92-0.77h2.3c0.25,0.51,0.63,0.51,1.15,0c-1.02-0.25-1.79-0.44-2.3-0.58c-0.52-0.13-1.28-0.32-2.3-0.57
				c1.02,0,1.85-0.06,2.49-0.19c0.63-0.13,1.34-0.06,2.11,0.19l0.38-0.38h0.38c2.55,0,3.83,1.28,3.83,3.83l-1.53,0.38l-0.38-0.38
				c-0.52-0.51-0.71-1.02-0.57-1.53c0.12-0.51-0.19-0.77-0.96-0.77h-0.77l2.3,3.45l-3.45-1.53v0.38c0.77,0.77,1.4,1.66,1.92,2.68
				c0.51,1.02,1.02,1.92,1.53,2.68l-0.38,0.38l1.53,1.91v2.3l-1.15,0.77c-0.52,0.51-0.77,0.71-0.77,0.58c0-0.13-0.26,0.45-0.77,1.72
				c0.51-1.53,0.44-3.51-0.19-5.94c-0.64-2.42-2.49-4.4-5.56-5.94l-3.06-0.77c0-0.25,0.13-0.51,0.38-0.77
				C664.95,646.3,664.82,645.92,664.31,645.41z M662.4,648.09c0.51,0,1.78,0.83,3.83,2.49c2.04,1.66,3.32,2.87,3.83,3.64l-0.77,0.38
				l1.53,3.07l-1.91-3.07h-0.77l-0.77-0.38l-0.38-0.38h0.38h0.77l-0.77-0.77l1.15,0.77c-1.02-1.78-1.79-2.3-2.3-1.53v0.38
				c-1.02-2.55-2.94-3.83-5.75-3.83C660.48,648.34,661.12,648.09,662.4,648.09z M401.86,648.85l1.53,1.15l-1.15,0.77v0.38
				l-1.15,1.91L401.86,648.85z M389.6,688.7c-0.26,1.02-0.32,1.98-0.19,2.87c0.13,0.9-0.19,1.72-0.96,2.49l-1.15,0.77L389.6,688.7z
				 M386.53,697.13l-0.77,3.07l-0.77-1.15L386.53,697.13z M384.62,700.2v1.53h-0.77L384.62,700.2z M291.9,612.84l0.38,1.15
				c0,0.26-0.26,0.45-0.77,0.57c-0.52,0.13-0.9,0.45-1.15,0.96C290.62,613.74,291.14,612.84,291.9,612.84z M290.75,615.91
				c0,2.3-1.02,3.45-3.06,3.45h-0.38L290.75,615.91z M282.71,625.1c0,0.26,0.06,0.71,0.19,1.34c0.13,0.64,0.06,0.96-0.19,0.96
				l-0.77-0.38L282.71,625.1z M280.79,628.16v1.53c0,0.77-0.38,0.77-1.15,0l0.38-0.38l-0.38-0.38
				C279.64,628.42,280.03,628.16,280.79,628.16z M279.26,627.78h0.38l-1.53,3.06l-0.38-1.53L279.26,627.78z M272.75,750l-1.53,0.38
				C271.21,750.13,271.72,750,272.75,750z M263.55,749.62l1.53-1.15l1.53,1.92v0.38l-1.91,0.38c-0.26-0.25-0.64-0.63-1.15-1.15
				V749.62z M266.23,752.68l-1.15,1.53l-0.38-0.38C264.7,753.07,265.21,752.68,266.23,752.68z M255.12,746.56l0.77,1.15l-2.68-1.15
				H255.12z M252.82,671.46l-0.38,0.38l-0.77,0.38l0.38-0.77l0.38-0.38h3.07L252.82,671.46z M256.27,667.24l-0.38-1.53h0.38V667.24z
				 M257.8,664.55L257.8,664.55c0,0.52,0.13,0.78,0.38,0.78h-0.38l-0.38-1.15h0.02C257.56,664.3,257.68,664.43,257.8,664.55z
				 M251.29,745.02l1.92,3.06l-4.21-1.92l0.38-1.15h-1.15c-0.77,0-0.9-0.25-0.38-0.77L251.29,745.02z M247.84,740.04l-1.53-0.77
				v-0.38L247.84,740.04z M247.46,744.26l-1.53-1.15c-0.26-0.77-0.64-1.66-1.15-2.69c-0.31-0.61-0.62-1.29-0.92-1.99
				C245.51,740.6,246.73,742.56,247.46,744.26z M247.08,684.49l-0.38,1.15C245.93,685.13,246.05,684.74,247.08,684.49z
				 M243.71,738.08c-0.15-0.37-0.31-0.72-0.46-1.11c0.77,0,0.89-0.63,0.38-1.92l2.3,1.92L243.71,738.08z M243.63,732.76
				c0.25-0.51,0.77-0.63,1.53-0.38L243.63,732.76z M245.16,689.08c0,3.58-0.26,4.34-0.77,2.3v-0.77l-0.77-0.38
				C243.63,689.72,244.14,689.34,245.16,689.08z M242.48,697.89l1.15,0.38v-1.53l1.15,0.38c0,1.29-1.02,1.92-3.07,1.92
				L242.48,697.89z M240.95,717.82h-0.77c0.25-0.25,0.77-0.38,1.53-0.38C242.48,718.2,242.22,718.33,240.95,717.82z M239.22,707.67
				c0.38-1.15,0.7-2.11,0.96-2.87l0.77,3.45l-0.77,0.38l-0.38,2.68c0.25,0,0.51,0.19,0.77,0.57c0.25,0.38,0,0.57-0.77,0.57
				l-0.38-1.91C238.9,709.77,238.84,708.82,239.22,707.67z M239.8,715.14c-0.51,0.77-0.45,1.72,0.19,2.87
				c0.63,1.15,0.7,2.24,0.19,3.26c0.77,1.28,1.15,3,1.15,5.17c0,2.17,0.89,3.26,2.68,3.26l0.38,1.53l-1.92,0.38l0.77,1.15h-1.15
				c-0.26-2.04-0.77-4.08-1.53-6.13c-0.77-2.04-1.28-4.21-1.53-6.52C238.52,718.33,238.77,716.67,239.8,715.14z M242.09,734.68
				l-0.38,1.53c-0.77-1.02-1.41-2.04-1.92-3.06c-0.51-1.02-0.64-2.55-0.38-4.6c0.51,0.77,0.96,1.72,1.34,2.87
				C241.14,732.57,241.58,733.66,242.09,734.68z M238.26,707.47h0.38v0.38l-0.38,1.53V707.47z M236.73,718.97
				c-1.28-0.77-1.72-1.27-1.34-1.53c0.38-0.25,0.57-0.77,0.57-1.53L236.73,718.97z M235.96,715.14v-0.77c0-0.51,0.13-0.89,0.38-1.15
				v1.91H235.96z M236.35,712.45v-0.77l1.92-0.38L236.35,712.45z M237.5,700.2l-1.15,1.91c-0.26-0.25-0.38-0.63-0.38-1.15
				C235.96,701.48,236.47,701.22,237.5,700.2z M232.13,709.39c0.51,0,0.77,0.13,0.77,0.38c0,1.02-0.38,1.53-1.15,1.53L232.13,709.39
				z M272.36,755.75c-2.81,0-5.62,0.32-8.43,0.96c-2.81,0.64-5.36,0.96-7.66,0.96c-7.15,0-12.97-2.62-17.43-7.85
				c-4.47-5.23-7.09-11.43-7.86-18.58c-0.51-4.85-0.51-9.45,0-13.8c0.51,0,0.77,0.26,0.77,0.77c0.25,2.05,0.63,3.2,1.15,3.45
				c0.51-0.51,0.77-2.05,0.77-4.6c0-2.55,0.25-4.21,0.77-4.98h-0.77c-1.02,1.28-1.53,2.56-1.53,3.83l-1.53-0.38
				c0-0.25,0.13-0.38,0.38-0.38l0.77-0.77l1.92-3.06l0.77-1.15c0-0.51,0.19-1.15,0.57-1.92l0.96-1.92c0.25,1.53,0.06,2.87-0.57,4.02
				c-0.64,1.15-0.83,2.49-0.57,4.02c-0.51,1.02-0.64,2.3-0.38,3.83c-0.26,0.77,0.13,1.29,1.15,1.53v1.92l0.77-0.77v3.83l-0.38-1.15
				c-0.51,4.6-0.19,8.17,0.96,10.72c1.15,2.56,2.87,5.49,5.17,8.82c-0.51,1.02-0.13,1.85,1.15,2.49c1.27,0.64,2.17,0.96,2.68,0.96
				l2.3,3.06c1.27-0.51,2.3-0.25,3.06,0.77c0.77,1.02,1.78,1.41,3.07,1.15v0.38l-4.21-0.38l1.53,1.92c1.02,0,1.98,0.19,2.87,0.57
				c0.89,0.38,1.98,0.58,3.26,0.58h4.98c1.53,0,3-0.06,4.41-0.19c1.4-0.13,3-0.32,4.79-0.58l3.07,0.77L272.36,755.75z
				 M360.48,752.11c-0.51-0.38-0.89-0.57-1.15-0.57c0.77-1.02,1.15-1.4,1.15-1.15C360.99,751.92,360.99,752.49,360.48,752.11z
				 M370.45,705.48c0.32-0.29,0.63-0.58,0.91-0.85l0.22,0.17L370.45,705.48z M478.49,751.92l0.77-1.53l0.77,1.92L478.49,751.92z
				 M480.02,721.27c-0.26-1.02-0.26-2.05,0-3.07c0,0.77,0.13,1.29,0.38,1.53C480.65,720,480.53,720.5,480.02,721.27z M489.79,727.02
				c-0.38,0.26-0.71,0.38-0.96,0.38c-1.02-0.25-1.15-0.51-0.38-0.77l-0.77-0.77C489.46,726.38,490.17,726.76,489.79,727.02z
				 M489.6,733.53l-0.77,0.77h-0.77c0-2.3-0.77-4.21-2.3-5.75v-1.53L489.6,733.53z M485,723.57l0.38,1.15l0.38-0.77v1.53l-0.38-0.38
				H485V723.57z M483.47,723.57l0.38,1.53c-0.51,0-0.77-0.13-0.77-0.38L483.47,723.57z M481.17,709.77l0.38-1.15
				c0.25,0,0.38,0.13,0.38,0.38c0,0.26,0.25,0.38,0.77,0.38L481.17,709.77z M481.94,735.06l1.15-1.53l2.3,2.68L481.94,735.06z
				 M491.9,740.81c-1.79-1.53-3.39-3.32-4.79-5.36c-1.41-2.04-2.75-4.08-4.02-6.13v-2.3h0.38v0.38c1.27,0,1.92,0.71,1.92,2.11
				c0,1.41,0.51,2.49,1.53,3.26l4.6,7.28h1.53L491.9,740.81z M494.58,736.59l-0.77-0.38l-3.06-2.68h0.38c1.28,0,2.81,0.9,4.6,2.68
				L494.58,736.59z M498.41,740.81c0-1.02,0.25-1.53,0.77-1.53C498.92,740.3,498.66,740.81,498.41,740.81z M503.39,742.34h-0.77
				l0.77-0.38l-2.68-1.15h1.53h0.38h1.92L503.39,742.34z M504.92,740.81v-0.77h-0.38l0.38-1.15c0,1.02,0.38,1.66,1.15,1.92H504.92z
				 M573.13,723.57v0.38l-0.77,0.77h-0.38l0.38-1.15h0.38H573.13z M580.79,750.39c-1.53-0.25-2.68-0.96-3.45-2.11
				c-0.77-1.15-1.79-1.98-3.06-2.49l-1.53-2.68l0.38-1.92h-0.38l-0.77-0.38c0.77-0.25,0.9-0.77,0.38-1.53
				c-0.51-0.77-0.77-1.53-0.77-2.3c-0.51-0.51-0.51-1.15,0-1.92l1.15,0.38c0-0.25,0.07-0.51,0.19-0.77
				c0.13-0.25,0.19-0.63,0.19-1.15l-1.15-5.75l1.15,3.45c0.51,0,0.71,0.19,0.58,0.57c-0.13,0.38-0.19,0.71-0.19,0.96l0.38-0.38
				l0.38-0.77c0,1.53-0.38,3.2-1.15,4.98l3.06,1.53l-1.15,2.68c1.78,0,2.68,0.65,2.68,1.92v1.53l1.15-1.15
				c0.51,0,0.77,0.38,0.77,1.15c0,1.02-0.51,1.66-1.53,1.92l3.06,3.45L580.79,750.39z M583.85,751.73
				c-0.26,0.13-0.77-0.57-1.54-2.11l2.68,1.15h-0.38C584.36,751.28,584.11,751.6,583.85,751.73z M588.07,753.45
				c-0.77,0-1.28-0.19-1.53-0.57c-0.26-0.38-0.77-0.7-1.53-0.96l1.53-0.38l2.3,1.15L588.07,753.45z M593.82,750
				c-0.77-0.25-1.02-0.25-0.77,0c-1.02-0.77-2.05-1.15-3.06-1.15c-1.02,0-2.05-0.38-3.07-1.15h-0.77l0.38-0.77
				c0-0.25-0.13-0.38-0.38-0.38l-1.15,0.38c-0.51-1.53-2.05-2.81-4.6-3.83l1.15-1.15h0.38l-1.91-2.69c0-0.25,0.25-0.32,0.77-0.19
				c0.51,0.13,0.77,0.45,0.77,0.96l1.15,1.15l-0.77-2.3l2.68,2.3v0.77h-0.77l-1.15,0.38l4.22,1.92l-2.3,0.38
				c2.3,1.02,4.34,2.17,6.13,3.45h2.68l-0.77,0.38l1.53,1.15h0.77V750C594.97,750.26,594.58,750.26,593.82,750z M594.97,754.22
				l1.15-0.77C596.11,753.97,595.73,754.22,594.97,754.22z M606.84,752.3l-2.68,0.77l-1.92-1.15h-2.68l-0.77-1.53
				c1.28,0.77,2.42,1.02,3.45,0.77c1.02-0.25,2.17-0.13,3.45,0.38l1.15,0.38V752.3z M614.12,751.54l-0.77-1.91l2.3,0.77
				L614.12,751.54z M615.27,761.5c0.25-0.25,1.02-0.25,2.3,0C617.57,762.01,616.81,762.01,615.27,761.5z M655.89,746.94
				c-0.77,0-1.28-0.13-1.53-0.38l1.53-0.77c0.25,0,0.51,0.13,0.77,0.38L655.89,746.94z M661.82,743.68
				c-1.41,0.38-2.36,0.57-2.87,0.57l1.15-1.92l0.77,0.38C662.91,742.98,663.22,743.3,661.82,743.68z"/>
		</g>
		<g>
			<polygon class="st1" points="589.99,768.01 590.37,768.78 590.75,767.63 590.37,767.63 			"/>
		</g>
		<g>
			<polygon class="st1" points="626.77,760.35 628.68,760.73 630.21,760.73 628.3,759.2 			"/>
		</g>
		<g>
			<polygon class="st1" points="606.46,765.71 607.61,766.1 609.14,765.33 607.99,764.95 			"/>
		</g>
	</g>
</g>
</svg>
