<?xml version="1.0" encoding="utf-8"?>
<!-- Generator: Adobe Illustrator 23.0.2, SVG Export Plug-In . SVG Version: 6.00 Build 0)  -->
<svg version="1.1" xmlns="http://www.w3.org/2000/svg" xmlns:xlink="http://www.w3.org/1999/xlink" x="0px" y="0px"
	 viewBox="0 0 1190.55 550.35" style="enable-background:new 0 0 1190.55 550.35;" xml:space="preserve">
<style type="text/css">
	.st0{fill:#FFFFFF;}
	.st1{fill:#BE1E2D;}
</style>
<g id="Warstwa_2">
	<rect class="st0" width="1190.55" height="1190.55"/>
</g>
<g id="Layer_1">
	<g>
		<g>
			<path d="M652.18,222.19c8.75,8.76,16.33,18.64,22.66,29.5c6.33-10.87,13.92-20.75,22.67-29.5c13-13.02,28.37-23.44,45.68-30.98
				c1.9-0.83,3.82-1.61,5.76-2.35H600.42c1.95,0.73,3.88,1.51,5.8,2.34C623.68,198.73,639.14,209.16,652.18,222.19z"/>
			<path d="M756.88,281.99c5.53-5.51,11.89-9.81,19.05-12.89c7.16-3.08,14.97-4.62,23.44-4.62h197.35l75.07-76.68H799.37
				c-9.76,0-19.19,0.96-28.29,2.88c-8.52,1.78-16.75,4.41-24.7,7.87c-16.44,7.16-30.85,16.93-43.22,29.3
				c-11.42,11.41-20.58,24.63-27.55,39.64c-0.26,0.55-0.52,1.11-0.77,1.67c-0.25-0.56-0.51-1.12-0.77-1.67
				c-6.97-15.01-16.14-28.23-27.55-39.64c-12.38-12.37-26.86-22.14-43.46-29.31c-11.39-4.91-23.33-8.13-35.79-9.68
				c-5.7-0.71-11.51-1.06-17.44-1.06H413.08v1.06v78.63v119.56h-59.77c-9.12,0-17.51-1.95-25.16-5.86
				c-7.64-3.9-14.24-9.11-19.77-15.62c-8.79-10.75-13.36-23.12-13.67-37.12v-60.96h110.37v-78.63H294.71V87.19h-74.24l0.2,101.67
				H57.89l75.07,78.63h87.86l0.14,70.24c0,4.88,0.48,9.61,1.46,14.16c0.98,4.56,2.11,9.12,3.42,13.68
				c3.91,13.67,9.93,26.37,18.07,38.09c8.13,11.72,17.82,21.9,29.06,30.53c11.24,8.62,23.6,15.3,37.12,20.01
				c13.5,4.74,27.91,7.09,43.22,7.09h59.77h73.07h3.12V324.54c0-8.14,1.54-15.87,4.65-23.2c3.1-7.33,7.44-13.75,13-19.29
				c5.55-5.53,11.93-9.84,19.12-12.94c1.41-0.6,2.84-1.15,4.3-1.63c5.99-2.01,12.41-3.01,19.24-3.01c6.57,0,12.93,1,19.08,3.01
				c1.5,0.48,2.98,1.03,4.46,1.63c7.51,3.1,13.97,7.41,19.37,12.94c5.39,5.54,9.72,11.96,12.98,19.29
				c3.27,7.33,4.91,15.06,4.91,23.2v136.74h76.19v-60.15c4.88,7.23,10.41,13.93,16.59,20.1c12.37,12.39,26.78,22.16,43.22,29.31
				c16.44,7.16,34.1,10.74,52.99,10.74c17.59,0,34.19-3.08,49.82-9.27c15.63-6.19,29.46-14.65,41.51-25.4
				c12.04-10.74,21.97-23.44,29.79-38.09c7.82-14.66,12.7-30.44,14.65-47.38h-77.65c-3.59,12.56-10.67,22.94-21.24,31.16
				c-10.59,8.21-22.89,12.31-36.88,12.31c-8.47,0-16.28-1.53-23.44-4.62c-7.16-3.08-13.52-7.38-19.05-12.89
				c-5.54-5.5-9.85-11.92-12.94-19.21c-3.09-7.3-4.64-15.16-4.64-23.59c0-8.11,1.55-15.81,4.64-23.11
				C747.03,293.91,751.34,287.5,756.88,281.99z"/>
		</g>
		<polygon class="st1" points="1132.66,327.22 1071.79,327.22 1071.79,266.35 996.72,266.35 996.72,327.22 935.85,327.22
			935.85,402.29 996.72,402.29 996.72,463.16 1071.79,463.16 1071.79,402.29 1132.66,402.29 		"/>
	</g>
</g>
</svg>
